<svg width="160" height="29" viewBox="0 0 160 29" fill="none" xmlns="http://www.w3.org/2000/svg">
<g clip-path="url(#clip0_2_23)">
<path fill-rule="evenodd" clip-rule="evenodd" d="M20.665 19.2831C20.665 21.67 19.8485 23.6172 18.1525 25.0619C16.4567 26.5065 14.2583 27.2603 11.4945 27.2603H0V0H10.7408C16.2054 0 19.7228 2.95214 19.7228 7.72583C19.7228 10.0499 18.8435 11.8086 17.2103 13.1276C19.5344 14.5095 20.665 16.5195 20.665 19.2831ZM6.97209 6.21836V10.4896H10.5524C11.8086 10.4896 12.7508 9.73581 12.7508 8.35395C12.7508 7.09772 11.8086 6.21836 10.5524 6.21836H6.97209ZM11.3061 21.0419C12.688 21.0419 13.693 20.0997 13.693 18.7178C13.693 17.3361 12.7508 16.3939 11.3061 16.3939H6.97209V20.9791H11.3061V21.0419ZM29.3331 19.9113C30.0239 21.4816 31.4058 22.2982 33.667 22.2982C35.0489 22.2982 36.2423 21.8585 37.1845 20.9163L41.8325 24.1825C39.9483 26.5694 37.1217 27.8256 33.4786 27.8256C30.1495 27.8256 27.5115 26.8834 25.5644 24.9363C23.5544 22.9891 22.6122 20.5394 22.6122 17.5872C22.6122 14.698 23.5544 12.1855 25.5015 10.2383C27.4487 8.22835 29.9611 7.28618 32.9133 7.28618C35.8026 7.28618 38.1895 8.22835 40.1367 10.1755C42.0211 12.1227 42.9631 14.5724 42.9631 17.5245C42.9631 18.4038 42.9003 19.2204 42.7119 19.9113H29.3331ZM36.7448 15.4517C36.2423 13.6302 34.9861 12.7508 33.1017 12.7508C31.0917 12.7508 29.8356 13.6302 29.2703 15.4517H36.7448ZM54.5204 14.007H58.5404V7.78861H54.5204V2.32399L48.0509 4.27116V7.85143H45.1615V14.0698H48.0509V19.8484C48.0509 22.9262 48.8046 25.0618 50.3749 26.2553C51.9451 27.4487 54.7089 27.7628 58.5404 27.3231V21.4815C55.6511 21.6072 54.5204 21.3559 54.5204 19.66V14.007Z" fill="#FF0025"/>
<path fill-rule="evenodd" clip-rule="evenodd" d="M80.2103 25.0619C81.9062 23.6172 82.7228 21.67 82.7228 19.2831C82.7228 16.5195 81.5922 14.5095 79.3309 13.1276C80.9641 11.8086 81.8434 10.0499 81.8434 7.72583C81.8434 2.95214 78.3259 0 72.8614 0H62.1205V27.2603H73.5522C76.3159 27.2603 78.5144 26.5065 80.2103 25.0619ZM69.0926 10.4896V6.21836H72.6728C73.9291 6.21836 74.8713 7.09772 74.8713 8.35395C74.8713 9.73581 73.9291 10.4896 72.6728 10.4896H69.0926ZM75.7506 18.7178C75.7506 20.0997 74.7456 21.0419 73.3639 21.0419V20.9791H69.0926V16.3939H73.3639C74.8085 16.3939 75.7506 17.3361 75.7506 18.7178ZM84.7328 17.5245C84.7328 20.4138 85.7377 22.8634 87.7477 24.8734C89.7577 26.8206 92.2073 27.8256 95.0967 27.8256C97.986 27.8256 100.436 26.8834 102.446 24.8734C104.456 22.8634 105.461 20.4138 105.461 17.5245C105.461 14.6351 104.456 12.2483 102.446 10.2383C100.498 8.22832 97.986 7.22333 95.0967 7.22333C92.2073 7.22333 89.7577 8.22832 87.7477 10.2383C85.7377 12.2483 84.7328 14.6351 84.7328 17.5245ZM95.0967 13.5045C97.4206 13.5045 99.0538 15.1376 99.0538 17.5245C99.0538 19.9113 97.4206 21.5444 95.0967 21.5444C92.8983 21.5444 91.2023 19.9113 91.2023 17.5245C91.2023 15.2004 92.8983 13.5045 95.0967 13.5045ZM110.486 24.8734C108.476 22.8634 107.471 20.4138 107.471 17.5245C107.471 14.6351 108.476 12.2483 110.486 10.2383C112.496 8.22832 114.945 7.22333 117.835 7.22333C120.724 7.22333 123.236 8.22832 125.184 10.2383C127.194 12.2483 128.199 14.6351 128.199 17.5245C128.199 20.4138 127.194 22.8634 125.184 24.8734C123.174 26.8834 120.724 27.8256 117.835 27.8256C114.945 27.8256 112.496 26.8206 110.486 24.8734ZM121.729 17.5245C121.729 15.1376 120.096 13.5045 117.772 13.5045C115.573 13.5045 113.877 15.2004 113.877 17.5245C113.877 19.9113 115.573 21.5444 117.772 21.5444C120.096 21.5444 121.729 19.9113 121.729 17.5245ZM160.107 27.2603V15.3261C160.107 10.3011 157.28 7.22333 152.758 7.22333C150.309 7.22333 148.487 8.03988 147.105 9.7358C146.037 8.03988 144.342 7.22333 142.143 7.22333C139.818 7.22333 138.06 8.03988 136.866 9.61018V7.78863H130.398V27.2603H136.866V16.6451C136.866 14.6351 137.809 13.3789 139.568 13.3789C141.201 13.3789 142.017 14.2583 142.017 16.0798V27.2603H148.487V16.6451C148.487 14.6351 149.429 13.3789 151.188 13.3789C152.758 13.3789 153.575 14.2583 153.575 16.0798V27.2603H160.107Z" fill="#F8E800"/>
</g>
<defs>
<clipPath id="clip0_2_23">
<rect width="160" height="28.8722" fill="white"/>
</clipPath>
</defs>
</svg>
