<svg width="120" height="120" viewBox="0 0 120 120" fill="none" xmlns="http://www.w3.org/2000/svg">
<g clip-path="url(#clip0_25_133)">
<path d="M60 115.139C85.5451 115.139 106.253 94.4304 106.253 68.8854C106.253 43.3403 85.5451 22.632 60 22.632C34.4549 22.632 13.7466 43.3403 13.7466 68.8854C13.7466 94.4304 34.4549 115.139 60 115.139Z" fill="url(#paint0_linear_25_133)"/>
<path d="M60 112.465C84.0683 112.465 103.58 92.9537 103.58 68.8854C103.58 44.8171 84.0683 25.3058 60 25.3058C35.9317 25.3058 16.4205 44.8171 16.4205 68.8854C16.4205 92.9537 35.9317 112.465 60 112.465Z" fill="url(#paint1_linear_25_133)"/>
<path d="M60 22.632C34.4548 22.632 13.7466 43.3404 13.7466 68.8854C13.7466 94.4303 34.4548 115.139 60 115.139C85.5452 115.139 106.253 94.4303 106.253 68.8854C106.253 43.3404 85.5452 22.632 60 22.632ZM60 112.465C35.9318 112.465 16.4205 92.9538 16.4205 68.8854C16.4205 44.8169 35.9318 25.3058 60 25.3058C84.0682 25.3058 103.58 44.8171 103.58 68.8854C103.58 92.9536 84.0682 112.465 60 112.465Z" fill="url(#paint2_linear_25_133)"/>
<path d="M60 107.729C81.4527 107.729 98.8435 90.3381 98.8435 68.8854C98.8435 47.4327 81.4527 30.0419 60 30.0419C38.5473 30.0419 21.1565 47.4327 21.1565 68.8854C21.1565 90.3381 38.5473 107.729 60 107.729Z" fill="url(#paint3_linear_25_133)"/>
<path d="M60 105.003C79.9472 105.003 96.1176 88.8326 96.1176 68.8854C96.1176 48.9382 79.9472 32.7678 60 32.7678C40.0528 32.7678 23.8824 48.9382 23.8824 68.8854C23.8824 88.8326 40.0528 105.003 60 105.003Z" fill="url(#paint4_linear_25_133)"/>
<path d="M60 114.236C61.5176 114.236 62.7478 113.006 62.7478 111.488C62.7478 109.971 61.5176 108.741 60 108.741C58.4825 108.741 57.2522 109.971 57.2522 111.488C57.2522 113.006 58.4825 114.236 60 114.236Z" fill="url(#paint5_linear_25_133)"/>
<path d="M60 113.859C61.3092 113.859 62.3706 112.798 62.3706 111.488C62.3706 110.179 61.3092 109.118 60 109.118C58.6908 109.118 57.6294 110.179 57.6294 111.488C57.6294 112.798 58.6908 113.859 60 113.859Z" fill="url(#paint6_linear_25_133)"/>
<path d="M60 29.0301C61.5176 29.0301 62.7478 27.7999 62.7478 26.2823C62.7478 24.7648 61.5176 23.5345 60 23.5345C58.4825 23.5345 57.2522 24.7648 57.2522 26.2823C57.2522 27.7999 58.4825 29.0301 60 29.0301Z" fill="url(#paint7_linear_25_133)"/>
<path d="M60 28.6529C61.3092 28.6529 62.3706 27.5916 62.3706 26.2823C62.3706 24.9731 61.3092 23.9117 60 23.9117C58.6908 23.9117 57.6294 24.9731 57.6294 26.2823C57.6294 27.5916 58.6908 28.6529 60 28.6529Z" fill="url(#paint8_linear_25_133)"/>
<path d="M17.3969 71.6332C18.9145 71.6332 20.1447 70.4029 20.1447 68.8854C20.1447 67.3679 18.9145 66.1376 17.3969 66.1376C15.8794 66.1376 14.6492 67.3679 14.6492 68.8854C14.6492 70.4029 15.8794 71.6332 17.3969 71.6332Z" fill="url(#paint9_linear_25_133)"/>
<path d="M17.3969 71.256C18.7062 71.256 19.7675 70.1946 19.7675 68.8854C19.7675 67.5761 18.7062 66.5148 17.3969 66.5148C16.0877 66.5148 15.0264 67.5761 15.0264 68.8854C15.0264 70.1946 16.0877 71.256 17.3969 71.256Z" fill="url(#paint10_linear_25_133)"/>
<path d="M102.603 71.6332C104.121 71.6332 105.351 70.4029 105.351 68.8854C105.351 67.3679 104.121 66.1376 102.603 66.1376C101.086 66.1376 99.8553 67.3679 99.8553 68.8854C99.8553 70.4029 101.086 71.6332 102.603 71.6332Z" fill="url(#paint11_linear_25_133)"/>
<path d="M102.603 71.256C103.912 71.256 104.974 70.1946 104.974 68.8854C104.974 67.5761 103.912 66.5148 102.603 66.5148C101.294 66.5148 100.232 67.5761 100.232 68.8854C100.232 70.1946 101.294 71.256 102.603 71.256Z" fill="url(#paint12_linear_25_133)"/>
<path d="M29.8751 101.758C31.3926 101.758 32.6228 100.528 32.6228 99.0103C32.6228 97.4928 31.3926 96.2626 29.8751 96.2626C28.3575 96.2626 27.1273 97.4928 27.1273 99.0103C27.1273 100.528 28.3575 101.758 29.8751 101.758Z" fill="url(#paint13_linear_25_133)"/>
<path d="M29.8751 101.381C31.1843 101.381 32.2456 100.32 32.2456 99.0104C32.2456 97.7011 31.1843 96.6398 29.8751 96.6398C28.5658 96.6398 27.5045 97.7011 27.5045 99.0104C27.5045 100.32 28.5658 101.381 29.8751 101.381Z" fill="url(#paint14_linear_25_133)"/>
<path d="M90.1249 41.5082C91.6425 41.5082 92.8727 40.278 92.8727 38.7605C92.8727 37.2429 91.6425 36.0127 90.1249 36.0127C88.6074 36.0127 87.3772 37.2429 87.3772 38.7605C87.3772 40.278 88.6074 41.5082 90.1249 41.5082Z" fill="url(#paint15_linear_25_133)"/>
<path d="M90.1249 41.131C91.4342 41.131 92.4955 40.0697 92.4955 38.7604C92.4955 37.4512 91.4342 36.3898 90.1249 36.3898C88.8157 36.3898 87.7544 37.4512 87.7544 38.7604C87.7544 40.0697 88.8157 41.131 90.1249 41.131Z" fill="url(#paint16_linear_25_133)"/>
<path d="M29.8751 41.5082C31.3926 41.5082 32.6228 40.278 32.6228 38.7605C32.6228 37.2429 31.3926 36.0127 29.8751 36.0127C28.3575 36.0127 27.1273 37.2429 27.1273 38.7605C27.1273 40.278 28.3575 41.5082 29.8751 41.5082Z" fill="url(#paint17_linear_25_133)"/>
<path d="M29.8751 41.131C31.1843 41.131 32.2456 40.0697 32.2456 38.7604C32.2456 37.4512 31.1843 36.3898 29.8751 36.3898C28.5658 36.3898 27.5045 37.4512 27.5045 38.7604C27.5045 40.0697 28.5658 41.131 29.8751 41.131Z" fill="url(#paint18_linear_25_133)"/>
<path d="M90.1249 101.758C91.6425 101.758 92.8727 100.528 92.8727 99.0103C92.8727 97.4928 91.6425 96.2626 90.1249 96.2626C88.6074 96.2626 87.3772 97.4928 87.3772 99.0103C87.3772 100.528 88.6074 101.758 90.1249 101.758Z" fill="url(#paint19_linear_25_133)"/>
<path d="M90.1249 101.381C91.4342 101.381 92.4955 100.32 92.4955 99.0104C92.4955 97.7011 91.4342 96.6398 90.1249 96.6398C88.8157 96.6398 87.7544 97.7011 87.7544 99.0104C87.7544 100.32 88.8157 101.381 90.1249 101.381Z" fill="url(#paint20_linear_25_133)"/>
<path d="M43.8393 111.052C45.3568 111.052 46.5871 109.822 46.5871 108.304C46.5871 106.787 45.3568 105.556 43.8393 105.556C42.3217 105.556 41.0915 106.787 41.0915 108.304C41.0915 109.822 42.3217 111.052 43.8393 111.052Z" fill="url(#paint21_linear_25_133)"/>
<path d="M43.8393 110.675C45.1485 110.675 46.2099 109.613 46.2099 108.304C46.2099 106.995 45.1485 105.934 43.8393 105.934C42.5301 105.934 41.4687 106.995 41.4687 108.304C41.4687 109.613 42.5301 110.675 43.8393 110.675Z" fill="url(#paint22_linear_25_133)"/>
<path d="M75.1184 32.0089C76.5226 32.5847 78.1275 31.9129 78.7031 30.5087C79.2788 29.1044 78.6071 27.4995 77.2031 26.924C75.7988 26.3482 74.1939 27.02 73.6184 28.424C73.0426 29.8284 73.7141 31.4334 75.1184 32.0089Z" fill="url(#paint23_linear_25_133)"/>
<path d="M76.1607 31.8371C77.4699 31.8371 78.5313 30.7758 78.5313 29.4665C78.5313 28.1573 77.4699 27.0959 76.1607 27.0959C74.8515 27.0959 73.7901 28.1573 73.7901 29.4665C73.7901 30.7758 74.8515 31.8371 76.1607 31.8371Z" fill="url(#paint24_linear_25_133)"/>
<path d="M18.0386 51.6823C17.4628 53.0865 18.1346 54.6915 19.5386 55.267C20.9428 55.8428 22.5478 55.171 23.1233 53.767C23.6991 52.3628 23.0273 50.7578 21.6233 50.1823C20.2193 49.6065 18.6144 50.2781 18.0386 51.6823Z" fill="url(#paint25_linear_25_133)"/>
<path d="M20.5812 55.0952C21.8904 55.0952 22.9518 54.0339 22.9518 52.7247C22.9518 51.4154 21.8904 50.3541 20.5812 50.3541C19.2719 50.3541 18.2106 51.4154 18.2106 52.7247C18.2106 54.0339 19.2719 55.0952 20.5812 55.0952Z" fill="url(#paint26_linear_25_133)"/>
<path d="M99.4188 87.7939C100.936 87.7939 102.167 86.5637 102.167 85.0461C102.167 83.5286 100.936 82.2983 99.4188 82.2983C97.9013 82.2983 96.6711 83.5286 96.6711 85.0461C96.6711 86.5637 97.9013 87.7939 99.4188 87.7939Z" fill="url(#paint27_linear_25_133)"/>
<path d="M99.4188 87.4167C100.728 87.4167 101.789 86.3554 101.789 85.0461C101.789 83.7369 100.728 82.6755 99.4188 82.6755C98.1096 82.6755 97.0482 83.7369 97.0482 85.0461C97.0482 86.3554 98.1096 87.4167 99.4188 87.4167Z" fill="url(#paint28_linear_25_133)"/>
<path d="M18.1645 86.3922C18.7504 87.7922 20.36 88.4522 21.76 87.8663C23.16 87.2804 23.82 85.6708 23.2341 84.2708C22.6482 82.8708 21.0386 82.2108 19.6386 82.7967C18.2386 83.3823 17.5786 84.9922 18.1645 86.3922Z" fill="url(#paint29_linear_25_133)"/>
<path d="M20.6993 87.7019C22.0085 87.7019 23.0699 86.6405 23.0699 85.3313C23.0699 84.022 22.0085 82.9607 20.6993 82.9607C19.3901 82.9607 18.3287 84.022 18.3287 85.3313C18.3287 86.6405 19.3901 87.7019 20.6993 87.7019Z" fill="url(#paint30_linear_25_133)"/>
<path d="M96.7659 53.5002C97.3518 54.9002 98.9614 55.5602 100.361 54.9743C101.761 54.3884 102.421 52.7788 101.836 51.3788C101.25 49.9788 99.64 49.3188 98.24 49.9047C96.84 50.4903 96.18 52.1002 96.7659 53.5002Z" fill="url(#paint31_linear_25_133)"/>
<path d="M99.3007 54.8101C100.61 54.8101 101.671 53.7487 101.671 52.4395C101.671 51.1303 100.61 50.0689 99.3007 50.0689C97.9915 50.0689 96.9301 51.1303 96.9301 52.4395C96.9301 53.7487 97.9915 54.8101 99.3007 54.8101Z" fill="url(#paint32_linear_25_133)"/>
<path d="M42.4932 27.0499C41.0932 27.6357 40.4332 29.2454 41.0191 30.6454C41.6049 32.0454 43.2146 32.7054 44.6146 32.1195C46.0146 31.5336 46.6746 29.924 46.0887 28.524C45.5031 27.124 43.8932 26.464 42.4932 27.0499Z" fill="url(#paint33_linear_25_133)"/>
<path d="M43.5541 31.9553C44.8634 31.9553 45.9247 30.8939 45.9247 29.5847C45.9247 28.2755 44.8634 27.2141 43.5541 27.2141C42.2449 27.2141 41.1835 28.2755 41.1835 29.5847C41.1835 30.8939 42.2449 31.9553 43.5541 31.9553Z" fill="url(#paint34_linear_25_133)"/>
<path d="M76.4459 110.934C77.9634 110.934 79.1936 109.704 79.1936 108.186C79.1936 106.669 77.9634 105.438 76.4459 105.438C74.9283 105.438 73.6981 106.669 73.6981 108.186C73.6981 109.704 74.9283 110.934 76.4459 110.934Z" fill="url(#paint35_linear_25_133)"/>
<path d="M76.4459 110.557C77.7551 110.557 78.8165 109.495 78.8165 108.186C78.8165 106.877 77.7551 105.815 76.4459 105.815C75.1366 105.815 74.0753 106.877 74.0753 108.186C74.0753 109.495 75.1366 110.557 76.4459 110.557Z" fill="url(#paint36_linear_25_133)"/>
<path d="M60 112.329C83.9932 112.329 103.444 92.8786 103.444 68.8854C103.444 44.8922 83.9932 25.4418 60 25.4418C36.0068 25.4418 16.5565 44.8922 16.5565 68.8854C16.5565 92.8786 36.0068 112.329 60 112.329Z" fill="url(#paint37_linear_25_133)"/>
<path d="M74.7562 62.4216C74.6442 62.1793 74.4504 61.9736 74.1904 61.8557C74.0784 61.6132 73.8845 61.4077 73.6245 61.2899L46.4649 34.1301C46.3106 33.7957 46.0005 33.5308 45.5765 33.4703L36.7254 32.1976C29.4369 36.8313 23.6245 43.5776 20.1461 51.5743L20.1304 51.6659C20.0492 52.1339 20.2511 52.5499 20.5795 52.7953L35.8569 68.0727C35.9207 68.1205 35.9906 68.1598 36.0631 68.1939C36.1454 68.3708 36.2694 68.5237 36.4228 68.6386C36.4866 68.6863 36.5565 68.7256 36.6289 68.7598C36.7113 68.9369 36.8353 69.0899 36.9887 69.2045C37.0525 69.2522 37.1224 69.2915 37.1948 69.3256C37.2772 69.5026 37.4012 69.6555 37.5546 69.7703C37.6186 69.8181 37.6882 69.8574 37.7607 69.8915C37.8431 70.0685 37.9671 70.2214 38.1205 70.3362C38.1842 70.384 38.2541 70.4233 38.3266 70.4574C38.4089 70.6343 38.5329 70.7875 38.6864 70.9021C38.7501 70.9499 38.82 70.9892 38.8925 71.0233C38.9748 71.2002 39.0988 71.3532 39.2522 71.468C39.316 71.5158 39.3859 71.555 39.4584 71.5892C39.5407 71.7661 39.6647 71.919 39.8181 72.0339C39.8819 72.0816 39.9518 72.1209 40.0242 72.155C40.1066 72.332 40.2306 72.4849 40.384 72.5998C40.4478 72.6475 40.5176 72.6868 40.5901 72.7209C40.6725 72.8979 40.7965 73.0508 40.9499 73.1656C41.0136 73.2134 41.0835 73.2527 41.156 73.2868C41.2384 73.4637 41.3624 73.6167 41.5158 73.7315C41.5795 73.7793 41.6494 73.8186 41.7219 73.8527C41.8042 74.0296 41.9282 74.1826 42.0816 74.2974C42.1454 74.3452 42.2153 74.3845 42.2878 74.4186C42.3699 74.5955 42.4941 74.7485 42.6475 74.8633C42.7113 74.911 42.7812 74.9503 42.8536 74.9845C42.936 75.1614 43.06 75.3143 43.2134 75.4292C43.2772 75.4769 43.3471 75.5162 43.4195 75.5503C43.5019 75.7273 43.6259 75.8802 43.7793 75.995C43.8433 76.0428 43.9129 76.0821 43.9854 76.1162C44.0678 76.2932 44.1918 76.4461 44.3452 76.5609C44.4089 76.6087 44.4788 76.648 44.5513 76.6821C44.6336 76.859 44.7576 77.012 44.9111 77.1268C44.9748 77.1746 45.0447 77.2139 45.1172 77.248C45.1995 77.4249 45.3235 77.5779 45.4769 77.6927C45.5407 77.7405 45.6106 77.7798 45.6831 77.8139C45.7654 77.9908 45.8894 78.1437 46.0428 78.2586C46.1066 78.3063 46.1765 78.3456 46.2489 78.3798C46.3313 78.5567 46.4553 78.7096 46.6087 78.8245C46.6725 78.8722 46.7424 78.9115 46.8148 78.9456C46.8972 79.1226 47.0212 79.2755 47.1746 79.3903C47.2384 79.4381 47.3082 79.4774 47.3807 79.5115C47.4628 79.6885 47.5871 79.8414 47.7405 79.9562C47.8042 80.004 47.8741 80.0433 47.9466 80.0774C48.0289 80.2546 48.1529 80.4075 48.3064 80.5221C48.3701 80.5699 48.44 80.6092 48.5125 80.6433C48.5948 80.8202 48.7188 80.9732 48.8722 81.088C48.936 81.1357 49.0059 81.175 49.0784 81.2092C49.1607 81.3861 49.2847 81.5393 49.4381 81.6539C49.7689 81.9014 50.2285 81.9783 50.6569 81.764L59.3617 77.4252L68.0664 81.764C68.4948 81.9781 68.9546 81.9012 69.2852 81.6539C69.6139 81.4085 69.8155 80.9925 69.7344 80.5245L68.0974 70.9753L75.0737 64.3256C75.4252 63.9908 75.5064 63.5249 75.3774 63.1256C75.2798 62.8233 75.064 62.5612 74.7562 62.4216Z" fill="url(#paint38_linear_25_133)"/>
<path d="M103.113 63.5193C101.989 54.396 98.0388 46.148 92.1621 39.6802C91.0508 38.5826 89.9875 37.5294 88.9932 36.5353C88.9927 36.5348 88.9922 36.5346 88.992 36.5341C87.0908 34.8292 85.0381 33.2899 82.8574 31.9376C82.824 31.9169 82.7911 31.896 82.7576 31.8755C82.5242 31.7315 82.2887 31.5906 82.0522 31.4508C81.9998 31.42 81.9478 31.3887 81.8951 31.3579C81.6703 31.2266 81.444 31.0974 81.2169 30.9701C81.1511 30.9332 81.0852 30.896 81.0191 30.8595C80.7998 30.7381 80.5793 30.6186 80.3576 30.5007C80.2826 30.4607 80.2073 30.4212 80.132 30.3816C79.9151 30.268 79.6969 30.1557 79.4779 30.0456C79.3972 30.0052 79.3165 29.9652 79.2355 29.9252C79.0186 29.8179 78.8009 29.7117 78.5819 29.608C78.4984 29.5684 78.4144 29.5296 78.3303 29.4906C78.1113 29.3884 77.8918 29.2873 77.6708 29.1887C77.5875 29.1515 77.5035 29.1155 77.4198 29.0788C77.1962 28.9807 76.9722 28.8833 76.7466 28.7889C76.6687 28.7562 76.5899 28.7252 76.5118 28.6929C76.2783 28.5969 76.0447 28.5014 75.8094 28.4094C75.7527 28.3873 75.6955 28.3663 75.6388 28.3444C74.7936 28.0181 73.936 27.7167 73.0661 27.4426C73.0407 27.4346 73.0158 27.4259 72.9904 27.4181C72.7814 27.3527 72.5706 27.291 72.3602 27.2287C72.2393 27.1929 72.1191 27.1555 71.9976 27.1209C71.8087 27.0668 71.6186 27.0157 71.4285 26.9642C71.2842 26.9249 71.1405 26.8849 70.9958 26.847C70.8153 26.8 70.6336 26.7555 70.4522 26.7108C70.296 26.6722 70.1402 26.6334 69.9833 26.5965C69.8078 26.555 69.6313 26.516 69.4548 26.4769C69.2904 26.4404 69.1261 26.404 68.9609 26.3694C68.7889 26.3334 68.6162 26.299 68.4435 26.2649C68.2718 26.231 68.1 26.1979 67.9275 26.1661C67.7586 26.135 67.5894 26.1049 67.42 26.0757C67.2424 26.0452 67.0642 26.0157 66.8856 25.9873C66.7188 25.9607 66.5518 25.9348 66.3845 25.9101C66.2014 25.883 66.0176 25.8579 65.8339 25.8332C65.6696 25.811 65.5054 25.7892 65.3407 25.7692C65.1511 25.7459 64.9605 25.7247 64.7701 25.704C64.6094 25.6863 64.4489 25.6684 64.2878 25.6527C64.0899 25.6334 63.8913 25.6167 63.6927 25.6C63.5376 25.5868 63.3826 25.5729 63.2271 25.5616C63.0172 25.5463 62.8064 25.5341 62.5958 25.5216C62.4499 25.5132 62.3042 25.503 62.1579 25.496C61.9226 25.4844 61.6866 25.4767 61.4504 25.4692C61.3275 25.4652 61.2054 25.459 61.0824 25.4562C60.7278 25.4475 60.3725 25.4428 60.0158 25.4428C60.0106 25.4428 60.0052 25.4426 60 25.4426C59.9969 25.4426 59.9941 25.4426 59.9911 25.4426C59.6412 25.4426 59.2925 25.4475 58.9445 25.4557C58.828 25.4586 58.7125 25.4637 58.5962 25.4673C58.3614 25.4748 58.1268 25.4828 57.8927 25.4941C57.7565 25.5007 57.6207 25.5089 57.4847 25.5167C57.2711 25.5289 57.0574 25.5419 56.8447 25.5574C56.7028 25.5675 56.5612 25.5788 56.4198 25.5903C56.2122 25.6073 56.0052 25.6256 55.7986 25.6454C55.6572 25.659 55.5158 25.6727 55.3748 25.6877C55.1652 25.7099 54.9562 25.7343 54.7473 25.7595C54.6122 25.7757 54.4772 25.7915 54.3424 25.8089C54.1174 25.8381 53.8932 25.8703 53.6692 25.903C53.5529 25.92 53.4365 25.9355 53.3207 25.9534C52.9856 26.0052 52.6515 26.06 52.3191 26.1193C52.2746 26.1273 52.2306 26.1364 52.1861 26.1444C51.8958 26.1972 51.6061 26.2522 51.3179 26.3108C51.1939 26.336 51.0708 26.3633 50.9473 26.3896C50.7388 26.4339 50.5304 26.4783 50.3231 26.5256C50.1849 26.5572 50.0473 26.5903 49.9096 26.623C49.7174 26.6687 49.5254 26.7153 49.3341 26.7635C49.1925 26.7993 49.0511 26.836 48.9099 26.8732C48.7231 26.9223 48.5365 26.9729 48.3506 27.0244C48.2094 27.0637 48.0685 27.103 47.9278 27.1437C47.7405 27.1979 47.5541 27.2539 47.368 27.3103C47.232 27.3517 47.0955 27.3924 46.96 27.435C46.7605 27.4979 46.5619 27.5633 46.3635 27.6287C46.244 27.6682 46.124 27.7063 46.0052 27.7468C45.6967 27.8517 45.3894 27.9595 45.0842 28.0713C45.0831 28.0717 45.0819 28.0722 45.0807 28.0724L48.2856 31.1322L46.0969 43.9223C45.9882 44.5496 46.2586 45.1073 46.6991 45.4362L64.7831 63.5202H103.113V63.5193Z" fill="url(#paint39_linear_25_133)"/>
<path d="M81.4664 20.6014C81.2962 20.0689 80.8475 19.6256 80.2035 19.5336L67.1871 17.6407L61.4052 5.74209C61.1207 5.15667 60.5605 4.86115 60 4.86115C59.4395 4.86115 58.8793 5.15667 58.5948 5.74209L52.8127 17.6407L39.7962 19.5336C39.1522 19.6256 38.7033 20.0689 38.5334 20.6014C38.3605 21.1367 38.4692 21.7611 38.9405 22.2101L48.2908 31.1228L46.0967 43.9218C45.988 44.5491 46.2584 45.1068 46.6988 45.4357C47.1421 45.7675 47.7581 45.8706 48.3325 45.5835L60 39.7677L71.6671 45.5833C72.2414 45.8703 72.8574 45.7673 73.3007 45.4355C73.7412 45.1066 74.0115 44.5489 73.9028 43.9216L71.7087 31.1226L81.0591 22.2099C81.5306 21.7611 81.6393 21.1364 81.4664 20.6014ZM60 27.4091L59.9805 27.4148L59.9889 27.4063L60 27.3896L60.0111 27.4063L60.0193 27.4148L60 27.4091Z" fill="url(#paint40_linear_25_133)"/>
<path d="M59.9889 27.4066L59.9805 27.415L48.2911 31.1228L38.9407 22.2101C38.4696 21.7611 38.3609 21.1367 38.5336 20.6014L59.9889 27.4066Z" fill="url(#paint41_linear_25_133)"/>
<path d="M59.9805 27.4148L46.6991 45.4355C46.2586 45.1066 45.9882 44.5489 46.0969 43.9216L48.2911 31.1226L59.9805 27.4148Z" fill="url(#paint42_linear_25_133)"/>
<path d="M73.3009 45.4355C72.8576 45.7672 72.2416 45.8703 71.6673 45.5832L60 39.7677V27.4091L60.0195 27.4148L73.3009 45.4355Z" fill="url(#paint43_linear_25_133)"/>
<path d="M60 27.4091V39.7677L48.3329 45.5832C47.7586 45.8703 47.1426 45.7672 46.6993 45.4355L59.9807 27.4148L60 27.4091Z" fill="url(#paint44_linear_25_133)"/>
<path d="M73.3009 45.4355L60.0195 27.4148L71.7089 31.1226L73.9031 43.9216C74.0118 44.5489 73.7414 45.1066 73.3009 45.4355Z" fill="url(#paint45_linear_25_133)"/>
<path d="M60 27.3896L59.9889 27.4063L38.5336 20.6011C38.7038 20.0687 39.1525 19.6254 39.7965 19.5334L52.8129 17.6404L60 27.3896Z" fill="url(#paint46_linear_25_133)"/>
<path d="M67.1871 17.6407L60 27.3896V4.86115C60.5602 4.86115 61.1207 5.15667 61.4052 5.74209L67.1871 17.6407Z" fill="url(#paint47_linear_25_133)"/>
<path d="M60 4.86115V27.3898L52.8129 17.6407L58.5951 5.74209C58.8793 5.15667 59.4395 4.86115 60 4.86115Z" fill="url(#paint48_linear_25_133)"/>
<path d="M81.4664 20.6014L60.0111 27.4066L60 27.3896L67.1871 17.6404L80.2035 19.5334C80.8475 19.6256 81.2965 20.0689 81.4664 20.6014Z" fill="url(#paint49_linear_25_133)"/>
<path d="M81.0595 22.2098L71.7092 31.1225L60.0198 27.4148L60.0115 27.4063L81.4668 20.6011C81.6393 21.1364 81.5306 21.7611 81.0595 22.2098Z" fill="url(#paint50_linear_25_133)"/>
<path d="M77.8308 21.3981C77.6897 20.9557 77.3167 20.5875 76.7819 20.5113L65.9699 18.9388L61.1671 9.0555C60.9308 8.56914 60.4654 8.32373 60 8.32373C59.5346 8.32373 59.0692 8.56914 58.8329 9.0555L54.0301 18.9388L43.2181 20.5113C42.6833 20.5877 42.3104 20.956 42.1692 21.3981C42.0256 21.8428 42.116 22.3614 42.5073 22.7343L50.2741 30.1376L48.4518 40.7689C48.3614 41.2898 48.5861 41.7531 48.952 42.0263C49.3202 42.3018 49.832 42.3875 50.3089 42.1491L60 37.3186L69.6913 42.1491C70.1682 42.3877 70.68 42.3021 71.0482 42.0263C71.4141 41.7531 71.6388 41.2898 71.5485 40.7689L69.7261 30.1376L77.4929 22.7343C77.8842 22.3614 77.9744 21.8428 77.8308 21.3981ZM60 27.0529L59.9838 27.0576L59.9908 27.0506L60 27.0367L60.0092 27.0506L60.0162 27.0576L60 27.0529Z" fill="url(#paint51_linear_25_133)"/>
<path d="M46.5186 34.267C46.3918 33.8699 46.0569 33.539 45.5765 33.4703L35.8652 32.0581L31.5513 23.1809C31.3391 22.7442 30.9212 22.5235 30.5031 22.5235C30.0849 22.5235 29.6668 22.744 29.4548 23.1809L25.1409 32.0581L15.4296 33.4703C14.9492 33.539 14.6144 33.8696 14.4875 34.267C14.3586 34.6663 14.4398 35.1322 14.7913 35.4673L21.7675 42.1169L20.1306 51.6659C20.0494 52.1339 20.2513 52.5499 20.5798 52.7953C20.9106 53.0428 21.3701 53.1197 21.7986 52.9056L30.5033 48.5668L39.208 52.9056C39.6365 53.1197 40.0962 53.0428 40.4268 52.7953C40.7555 52.5499 40.9572 52.1339 40.876 51.6659L39.2391 42.1169L46.2153 35.4673C46.5666 35.1322 46.6475 34.6663 46.5186 34.267ZM30.5031 39.3461L30.4885 39.3503L30.4946 39.344L30.5028 39.3315L30.5111 39.344L30.5174 39.3503L30.5031 39.3461Z" fill="url(#paint52_linear_25_133)"/>
<path d="M30.4946 39.344L30.4885 39.3503L21.7673 42.1167L14.7911 35.467C14.4395 35.1322 14.3583 34.6663 14.4873 34.2668L30.4946 39.344Z" fill="url(#paint53_linear_25_133)"/>
<path d="M30.4885 39.3503L20.5795 52.795C20.2508 52.5496 20.0492 52.1336 20.1304 51.6656L21.7673 42.1167L30.4885 39.3503Z" fill="url(#paint54_linear_25_133)"/>
<path d="M40.4266 52.7953C40.0958 53.0428 39.6362 53.1197 39.2078 52.9056L30.5031 48.5668V39.3463L30.5176 39.3506L40.4266 52.7953Z" fill="url(#paint55_linear_25_133)"/>
<path d="M30.5031 39.3461V48.5665L21.7984 52.9054C21.3699 53.1195 20.9101 53.0425 20.5795 52.795L30.4885 39.3503L30.5031 39.3461Z" fill="url(#paint56_linear_25_133)"/>
<path d="M40.4266 52.7953L30.5176 39.3506L39.2388 42.1169L40.8758 51.6659C40.9569 52.1336 40.7551 52.5496 40.4266 52.7953Z" fill="url(#paint57_linear_25_133)"/>
<path d="M30.5031 39.3318L30.4948 39.3442L14.4875 34.267C14.6143 33.8699 14.9492 33.539 15.4296 33.4703L25.1409 32.0581L30.5031 39.3318Z" fill="url(#paint58_linear_25_133)"/>
<path d="M35.8652 32.0581L30.5031 39.3317V22.5235C30.9212 22.5235 31.3393 22.744 31.5513 23.1809L35.8652 32.0581Z" fill="url(#paint59_linear_25_133)"/>
<path d="M30.5031 22.5235V39.3317L25.1409 32.0581L29.4548 23.1809C29.6668 22.744 30.0849 22.5235 30.5031 22.5235Z" fill="url(#paint60_linear_25_133)"/>
<path d="M46.5186 34.267L30.5113 39.3442L30.5031 39.3318L35.8652 32.0581L45.5765 33.4703C46.0569 33.539 46.3918 33.8696 46.5186 34.267Z" fill="url(#paint61_linear_25_133)"/>
<path d="M46.2151 35.467L39.2388 42.1167L30.5176 39.3503L30.5113 39.344L46.5186 34.2668C46.6475 34.6663 46.5666 35.1322 46.2151 35.467Z" fill="url(#paint62_linear_25_133)"/>
<path d="M43.8061 34.8614C43.7007 34.5315 43.4226 34.2567 43.0235 34.1998L34.9569 33.0266L31.3736 25.6527C31.1974 25.2899 30.8501 25.1068 30.5028 25.1068C30.1555 25.1068 29.8082 25.2899 29.632 25.6527L26.0487 33.0266L17.9821 34.1998C17.5831 34.2567 17.3049 34.5315 17.1995 34.8614C17.0925 35.1932 17.1598 35.5802 17.4518 35.8583L23.2463 41.3819L21.8866 49.3136C21.8193 49.7023 21.9868 50.048 22.2598 50.2518C22.5343 50.4574 22.9162 50.5212 23.2722 50.3433L30.5026 46.7393L37.7329 50.3433C38.0889 50.5212 38.4706 50.4574 38.7454 50.2518C39.0183 50.048 39.1859 49.7023 39.1186 49.3136L37.7588 41.3819L43.5534 35.8583C43.8459 35.5802 43.9134 35.1932 43.8061 34.8614ZM30.5031 39.0805L30.4911 39.084L30.4962 39.0788L30.5031 39.0685L30.5099 39.0788L30.5151 39.084L30.5031 39.0805Z" fill="url(#paint63_linear_25_133)"/>
<path d="M78.3532 39.8404L80.7442 42.1232L79.1113 51.6658C79.0301 52.1338 79.232 52.5498 79.5605 52.7952L93.0525 66.2872L95.1252 63.2378C95.9487 62.0263 97.0955 61.0677 98.4398 60.4851C99.7539 59.9157 101.003 59.2242 102.173 58.4258C100.214 50.5006 96.08 43.4341 90.4402 37.8938C90.1226 37.8846 89.804 37.8783 89.484 37.8783C85.5734 37.8785 81.8245 38.5712 78.3532 39.8404Z" fill="url(#paint64_linear_25_133)"/>
<path d="M105.513 34.267C105.386 33.8699 105.051 33.539 104.571 33.4703L94.8593 32.0581L90.5454 23.1809C90.3332 22.7442 89.9151 22.5235 89.4972 22.5235C89.0793 22.5235 88.6609 22.744 88.4489 23.1809L84.1351 32.0581L74.4238 33.4703C73.9433 33.539 73.6085 33.8696 73.4816 34.267C73.3527 34.6663 73.4339 35.1322 73.7854 35.4673L80.7616 42.1169L79.1247 51.6659C79.0435 52.1339 79.2454 52.5499 79.5739 52.7953C79.9047 53.0428 80.3642 53.1197 80.7927 52.9056L89.4972 48.5668L98.2019 52.9056C98.6303 53.1197 99.0901 53.0428 99.4207 52.7953C99.7494 52.5499 99.951 52.1339 99.8699 51.6659L98.2329 42.1169L105.209 35.4673C105.56 35.1322 105.642 34.6663 105.513 34.267ZM89.4969 39.3461L89.4823 39.3503L89.4887 39.344L89.4969 39.3315L89.5052 39.344L89.5115 39.3503L89.4969 39.3461Z" fill="url(#paint65_linear_25_133)"/>
<path d="M89.4887 39.344L89.4823 39.3503L80.7612 42.1167L73.7849 35.467C73.4334 35.1322 73.3522 34.6663 73.4812 34.2668L89.4887 39.344Z" fill="url(#paint66_linear_25_133)"/>
<path d="M89.4824 39.3503L79.5734 52.795C79.2447 52.5496 79.0431 52.1336 79.1242 51.6656L80.7612 42.1167L89.4824 39.3503Z" fill="url(#paint67_linear_25_133)"/>
<path d="M99.4205 52.7953C99.0896 53.0428 98.6301 53.1197 98.2016 52.9056L89.4969 48.5668V39.3463L89.5115 39.3506L99.4205 52.7953Z" fill="url(#paint68_linear_25_133)"/>
<path d="M89.4969 39.3461V48.5665L80.7925 52.9054C80.364 53.1195 79.9042 53.0425 79.5736 52.795L89.4826 39.3503L89.4969 39.3461Z" fill="url(#paint69_linear_25_133)"/>
<path d="M99.4205 52.7953L89.5115 39.3506L98.2327 42.1169L99.8696 51.6659C99.9508 52.1336 99.7492 52.5496 99.4205 52.7953Z" fill="url(#paint70_linear_25_133)"/>
<path d="M89.4969 39.3318L89.4887 39.3442L73.4814 34.267C73.6082 33.8699 73.943 33.539 74.4235 33.4703L84.1348 32.0581L89.4969 39.3318Z" fill="url(#paint71_linear_25_133)"/>
<path d="M94.8591 32.0581L89.4969 39.3317V22.5235C89.9151 22.5235 90.3332 22.744 90.5452 23.1809L94.8591 32.0581Z" fill="url(#paint72_linear_25_133)"/>
<path d="M89.4969 22.5235V39.3317L84.1348 32.0581L88.4487 23.1809C88.6609 22.744 89.0788 22.5235 89.4969 22.5235Z" fill="url(#paint73_linear_25_133)"/>
<path d="M105.513 34.267L89.5054 39.3442L89.4972 39.3318L94.8593 32.0581L104.571 33.4703C105.051 33.539 105.386 33.8696 105.513 34.267Z" fill="url(#paint74_linear_25_133)"/>
<path d="M105.209 35.467L98.2327 42.1167L89.5115 39.3503L89.5052 39.344L105.512 34.2668C105.642 34.6663 105.56 35.1322 105.209 35.467Z" fill="url(#paint75_linear_25_133)"/>
<path d="M102.8 34.8614C102.695 34.5315 102.417 34.2567 102.018 34.1998L93.951 33.0266L90.3678 25.6527C90.1915 25.2899 89.8442 25.1068 89.4969 25.1068C89.1496 25.1068 88.8023 25.2899 88.6261 25.6527L85.0428 33.0266L76.9762 34.1998C76.5772 34.2567 76.299 34.5315 76.1936 34.8614C76.0866 35.1932 76.1539 35.5802 76.4459 35.8583L82.2405 41.3819L80.8807 49.3136C80.8134 49.7023 80.9809 50.048 81.2539 50.2518C81.5287 50.4574 81.9103 50.5212 82.2663 50.3433L89.4967 46.7393L96.7271 50.3433C97.0831 50.5212 97.4647 50.4574 97.7395 50.2518C98.0125 50.048 98.18 49.7023 98.1127 49.3136L96.7529 41.3819L102.548 35.8583C102.84 35.5802 102.907 35.1932 102.8 34.8614ZM89.4969 39.0805L89.4849 39.084L89.4901 39.0788L89.4969 39.0685L89.5038 39.0788L89.5089 39.084L89.4969 39.0805Z" fill="url(#paint76_linear_25_133)"/>
<path d="M59.0245 86.8903L53.6097 94.7164C53.3287 95.1226 53.3287 95.6602 53.6097 96.0663L59.0245 103.892C59.4962 104.574 60.5038 104.574 60.9753 103.892L66.3901 96.0663C66.6711 95.6602 66.6711 95.1226 66.3901 94.7164L60.9753 86.8903C60.5038 86.2087 59.4962 86.2087 59.0245 86.8903Z" fill="url(#paint77_linear_25_133)"/>
<path d="M59.1456 87.9456L54.4031 94.8002C54.1569 95.156 54.1569 95.6268 54.4031 95.9826L59.1456 102.837C59.5588 103.434 60.4412 103.434 60.8544 102.837L65.5969 95.9826C65.8431 95.6268 65.8431 95.156 65.5969 94.8002L60.8544 87.9456C60.4412 87.3484 59.5588 87.3484 59.1456 87.9456Z" fill="url(#paint78_linear_25_133)"/>
<path d="M61.3273 88.6289C60.9847 88.1336 60.2501 88.0685 59.8649 88.5315C59.8449 88.5555 59.8256 88.5809 59.8073 88.6073L55.3939 94.9859C54.9496 95.628 54.9496 96.4781 55.3939 97.1202L59.6045 103.206C60.0344 103.382 60.5619 103.26 60.8544 102.837L65.5972 95.9826C65.8433 95.6268 65.8433 95.156 65.5972 94.8002L61.3273 88.6289Z" fill="url(#paint79_linear_25_133)"/>
<path d="M60.8544 87.9456C60.6188 87.6054 60.2308 87.4597 59.8642 87.5075V103.275C60.2308 103.323 60.6188 103.178 60.8544 102.837L65.5969 95.9826C65.8431 95.6268 65.8431 95.156 65.5969 94.8002L60.8544 87.9456Z" fill="url(#paint80_linear_25_133)"/>
<path d="M59.1457 102.837C59.5588 103.434 60.4412 103.434 60.8544 102.837L65.5969 95.9824C65.72 95.8045 65.7814 95.5979 65.7814 95.3913H54.2181C54.2181 95.5979 54.2798 95.8047 54.4028 95.9824L59.1457 102.837Z" fill="url(#paint81_linear_25_133)"/>
<path d="M47.5779 85.4167L43.6525 91.0901C43.4487 91.3844 43.4487 91.7743 43.6525 92.0687L47.5779 97.7421C47.9198 98.2362 48.6504 98.2362 48.9922 97.7421L52.9176 92.0687C53.1214 91.7743 53.1214 91.3844 52.9176 91.0901L48.9922 85.4167C48.6504 84.9226 47.9198 84.9226 47.5779 85.4167Z" fill="url(#paint82_linear_25_133)"/>
<path d="M47.6656 86.1819L44.2275 91.1511C44.0492 91.4089 44.0492 91.7504 44.2275 92.008L47.6656 96.9772C47.9652 97.4101 48.6049 97.4101 48.9042 96.9772L52.3424 92.008C52.5207 91.7501 52.5207 91.4087 52.3424 91.1511L48.9042 86.1819C48.6049 85.7489 47.9652 85.7489 47.6656 86.1819Z" fill="url(#paint83_linear_25_133)"/>
<path d="M49.2473 86.6772C48.9988 86.3181 48.4664 86.2708 48.1871 86.6063C48.1725 86.6237 48.1586 86.6421 48.1454 86.6612L44.9461 91.2852C44.624 91.7506 44.624 92.367 44.9461 92.8324L47.9986 97.2442C48.3104 97.3717 48.6925 97.2835 48.9045 96.9769L52.3426 92.0077C52.5209 91.7499 52.5209 91.4085 52.3426 91.1506L49.2473 86.6772Z" fill="url(#paint84_linear_25_133)"/>
<path d="M48.9045 86.1818C48.7339 85.935 48.4525 85.8296 48.1866 85.8642V97.295C48.4525 97.3296 48.7336 97.224 48.9045 96.9774L52.3426 92.0082C52.5209 91.7503 52.5209 91.4089 52.3426 91.1513L48.9045 86.1818Z" fill="url(#paint85_linear_25_133)"/>
<path d="M47.6656 96.9772C47.9652 97.4101 48.6049 97.4101 48.9042 96.9772L52.3424 92.008C52.4315 91.8791 52.4762 91.7292 52.4762 91.5795H44.0936C44.0936 91.7294 44.1381 91.8791 44.2275 92.008L47.6656 96.9772Z" fill="url(#paint86_linear_25_133)"/>
<path d="M71.0078 85.4167L67.0824 91.0901C66.8786 91.3844 66.8786 91.7743 67.0824 92.0687L71.0078 97.7421C71.3496 98.2362 72.0802 98.2362 72.4221 97.7421L76.3475 92.0687C76.5513 91.7743 76.5513 91.3844 76.3475 91.0901L72.4221 85.4167C72.0802 84.9226 71.3496 84.9226 71.0078 85.4167Z" fill="url(#paint87_linear_25_133)"/>
<path d="M71.0955 86.1819L67.6574 91.1511C67.4791 91.4089 67.4791 91.7504 67.6574 92.008L71.0955 96.9772C71.3951 97.4101 72.0348 97.4101 72.3341 96.9772L75.7722 92.008C75.9506 91.7501 75.9506 91.4087 75.7722 91.1511L72.3341 86.1819C72.0348 85.7489 71.3951 85.7489 71.0955 86.1819Z" fill="url(#paint88_linear_25_133)"/>
<path d="M72.6769 86.6772C72.4285 86.3181 71.896 86.2708 71.6167 86.6063C71.6021 86.6237 71.5882 86.6421 71.5751 86.6612L68.3758 91.2852C68.0536 91.7506 68.0536 92.367 68.3758 92.8324L71.4282 97.2442C71.7398 97.3717 72.1221 97.2835 72.3341 96.9769L75.7722 92.0077C75.9506 91.7499 75.9506 91.4085 75.7722 91.1506L72.6769 86.6772Z" fill="url(#paint89_linear_25_133)"/>
<path d="M72.3343 86.1818C72.1635 85.935 71.8823 85.8296 71.6165 85.8642V97.295C71.8823 97.3296 72.1635 97.224 72.3343 96.9774L75.7725 92.0082C75.9508 91.7503 75.9508 91.4089 75.7725 91.1513L72.3343 86.1818Z" fill="url(#paint90_linear_25_133)"/>
<path d="M71.0955 96.9772C71.3951 97.4101 72.0348 97.4101 72.3341 96.9772L75.7722 92.008C75.8614 91.8791 75.9061 91.7292 75.9061 91.5795H67.5235C67.5235 91.7294 67.5682 91.8791 67.6574 92.008L71.0955 96.9772Z" fill="url(#paint91_linear_25_133)"/>
<path d="M15.9301 82.9602C21.8854 101.622 39.3631 115.139 60 115.139C80.6369 115.139 98.1146 101.622 104.07 82.9602H15.9301Z" fill="url(#paint92_linear_25_133)"/>
<path d="M118.574 71.1141C117.776 69.5517 116.766 68.2442 115.564 67.2155C116.552 66.631 117.396 65.7748 118.027 64.6861C118.87 63.2319 119.297 61.7275 119.297 60.2148C119.297 58.1517 118.419 56.251 116.822 54.8602C115.679 53.8656 114.266 53.1555 112.622 52.7496C111.485 52.4691 110.468 52.2825 109.513 52.1788C108.608 52.0806 107.724 52.0308 106.884 52.0308C103.167 52.0308 99.8941 53.0028 97.1548 54.9199C97.0692 54.9799 96.9828 55.0425 96.8962 55.1068C96.3362 54.359 95.5974 53.7258 94.7047 53.2597C93.4393 52.5997 91.9944 52.2654 90.4103 52.2654C88.7854 52.2654 87.3214 52.6068 86.0569 53.2806C85.0188 53.835 84.1882 54.6183 83.6158 55.5494C83.0329 54.6065 82.1835 53.8155 81.1188 53.2597C79.8529 52.5999 78.4085 52.2656 76.8249 52.2656C75.1995 52.2656 73.7353 52.607 72.4715 53.2809C72.208 53.4214 71.9583 53.5769 71.7224 53.7458C71.4736 53.5691 71.2101 53.4061 70.9306 53.2602C69.6649 52.6002 68.2202 52.2658 66.636 52.2658C65.0511 52.2658 63.6059 52.6006 62.3405 53.2609C61.3207 53.7929 60.4979 54.5421 59.9181 55.4341C59.2487 54.5555 58.5513 53.9119 57.7743 53.4418C56.464 52.6503 54.8294 52.2658 52.7774 52.2658C51.1647 52.2658 49.696 52.6195 48.4122 53.3176C47.4266 53.8536 46.6318 54.5957 46.0652 55.4701C43.4882 53.3456 40.1802 52.2658 36.2256 52.2658C32.2158 52.2658 28.8649 53.387 26.2673 55.5976C25.9696 55.8508 25.6908 56.1197 25.4242 56.3983C23.3134 53.7376 19.8416 52.2658 15.3014 52.2658H7.29906C5.68964 52.2658 4.23105 52.6675 2.96329 53.4597C1.08 54.6366 -3.8147e-06 56.5771 -3.8147e-06 58.7832V83.6117C-3.8147e-06 85.5811 0.91129 87.3543 2.56164 88.6016C3.86564 89.5896 5.45953 90.0908 7.29906 90.0908H15.9654C19.5748 90.0908 22.5722 88.9872 24.8743 86.8117C25.0753 86.6218 25.2647 86.4218 25.4489 86.2171C25.7085 86.4865 25.9786 86.747 26.2673 86.9924C28.8661 89.2039 32.2167 90.3251 36.2261 90.3251C40.2311 90.3251 43.5739 89.219 46.1654 87.0397C46.724 87.8482 47.4835 88.5345 48.4106 89.0376C49.6943 89.7364 51.164 90.0908 52.7781 90.0908C54.3908 90.0908 55.8593 89.7369 57.1428 89.0392C58.1889 88.4708 59.0228 87.6722 59.5941 86.7275C60.6285 88.2157 62.7113 90.0908 66.6367 90.0908C68.2496 90.0908 69.7183 89.7369 71.0019 89.0388C71.9828 88.5056 72.7746 87.7679 73.3407 86.899C73.3889 86.9404 73.4341 86.9842 73.4831 87.0249C76.1141 89.2148 79.524 90.3249 83.6179 90.3249C87.6793 90.3249 91.0781 89.2183 93.72 87.0357C93.8944 86.8915 94.072 86.735 94.2503 86.567C94.9167 87.179 95.7353 87.775 96.7426 88.3343C99.3054 89.7588 102.284 90.4806 105.596 90.4806C109.612 90.4806 112.99 89.3646 115.634 87.1635C118.49 84.7856 120 81.3839 120 77.3265C120 75.0574 119.52 72.9677 118.574 71.1141Z" fill="url(#paint93_linear_25_133)"/>
<path d="M105.596 87.6946C102.763 87.6946 100.24 87.0904 98.0965 85.8991C97.3339 85.4758 96.6741 85.0101 96.1351 84.5151L95.9066 84.3054C94.9602 83.4362 93.5033 83.4449 92.5673 84.3252L92.3412 84.5376C92.2094 84.6614 92.0755 84.7798 91.9435 84.8889C89.8158 86.6468 87.0141 87.5388 83.6177 87.5388C80.2014 87.5388 77.3974 86.6503 75.2821 84.8976C75.2821 84.8976 75.1948 84.8193 75.1553 84.7852L74.8661 84.5369C73.7409 83.5711 72.0228 83.8167 71.2134 85.0591L71.0054 85.3783C70.6795 85.8788 70.2306 86.2868 69.6708 86.5906C68.7998 87.0645 67.7791 87.3045 66.6362 87.3045C64.4809 87.3045 62.8812 86.5753 61.8819 85.1374L61.5882 84.7148C60.5744 83.256 58.3944 83.3254 57.4751 84.8456L57.2089 85.2859C56.8875 85.8176 56.4042 86.2689 55.8115 86.5913C54.9407 87.0645 53.92 87.3045 52.7776 87.3045C51.6344 87.3045 50.6129 87.064 49.7424 86.5903C49.2096 86.3012 48.7784 85.92 48.4579 85.456L48.2492 85.1541C47.4271 83.9642 45.7595 83.7402 44.6525 84.671L44.3715 84.9073C42.2948 86.6534 39.5544 87.5388 36.2256 87.5388C32.8962 87.5388 30.1532 86.6409 28.0727 84.8706C27.8769 84.704 27.6753 84.5125 27.4558 84.2845L27.2071 84.0261C26.2193 83.0002 24.5685 83.0285 23.6162 84.0873L23.3765 84.3539C23.2169 84.5313 23.0847 84.6687 22.9602 84.7861C21.1673 86.4807 18.8791 87.3042 15.9649 87.3042H7.29906C6.064 87.3042 5.06494 87.0021 4.2447 86.3807C3.28988 85.6591 2.78682 84.7023 2.78682 83.6118V58.7833C2.78682 57.5405 3.37411 56.4889 4.4407 55.8221C5.25835 55.3113 6.22023 55.052 7.29929 55.052H15.3024C17.8106 55.052 21.224 55.5859 23.2421 58.1296L23.48 58.4294C24.4042 59.5946 26.1445 59.6755 27.1732 58.6014L27.4379 58.3249C27.6609 58.0918 27.8692 57.8939 28.0741 57.7193C30.1541 55.9494 32.8969 55.052 36.2266 55.052C39.5127 55.052 42.2268 55.9158 44.2936 57.6198L44.5824 57.8579C45.7132 58.7901 47.4038 58.5292 48.2009 57.2993L48.4047 56.9852C48.7311 56.4816 49.1816 56.0713 49.7442 55.7656C50.6151 55.2922 51.636 55.0522 52.7786 55.0522C54.3085 55.0522 55.4718 55.3056 56.3348 55.8268C56.8162 56.1181 57.2515 56.5303 57.7028 57.1226L57.9901 57.4995C59.0184 58.8492 61.0734 58.7722 61.9979 57.3496L62.256 56.9522C62.5849 56.4463 63.0473 56.0355 63.6306 55.7313C64.4944 55.2805 65.5059 55.052 66.6374 55.052C67.7685 55.052 68.7798 55.2805 69.6435 55.7308C69.8007 55.8129 69.9576 55.9092 70.1089 56.0167L70.3028 56.1546C71.156 56.7612 72.3 56.7595 73.1513 56.1503L73.2047 56.1122C73.4428 55.9419 73.6894 55.7814 73.9529 55.6532C74.7727 55.2541 75.7383 55.052 76.8261 55.052C77.9565 55.052 78.9678 55.2805 79.832 55.7308C80.4311 56.0435 80.9207 56.4878 81.2461 57.0146L81.5308 57.4753C82.4908 59.0282 84.7504 59.0256 85.7066 57.4703L85.9901 57.0092C86.3097 56.4896 86.7868 56.0503 87.3701 55.739C88.2249 55.2835 89.2485 55.0522 90.4113 55.0522C91.5424 55.0522 92.5536 55.2807 93.4169 55.7308C93.9242 55.9958 94.3449 56.348 94.6664 56.7772L94.8654 57.043C95.6744 58.1235 97.2042 58.3475 98.2889 57.544L98.5558 57.3463C98.6224 57.2972 98.6887 57.2489 98.7541 57.2028C101.015 55.6205 103.751 54.8179 106.885 54.8179C107.624 54.8179 108.407 54.8623 109.213 54.9496C110.044 55.04 110.941 55.2054 111.956 55.4555C113.164 55.7541 114.187 56.2614 114.994 56.9633C115.986 57.827 116.511 58.952 116.511 60.2153C116.511 61.2313 116.21 62.2654 115.617 63.2889C115.231 63.9539 114.736 64.4685 114.146 64.8174L113.744 65.0551C112.297 65.9111 112.12 67.9362 113.398 69.0296L113.752 69.3329C114.676 70.1231 115.463 71.1489 116.093 72.3823C116.837 73.8388 117.214 75.5023 117.214 77.3268C117.214 80.5755 116.083 83.1649 113.852 85.0228C111.721 86.7953 108.944 87.6946 105.596 87.6946Z" fill="url(#paint94_linear_25_133)"/>
<path d="M4.64447 83.6117V58.783C4.64447 58.1847 4.90423 57.723 5.42517 57.3974C5.94541 57.0722 6.57011 56.9096 7.29882 56.9096H15.3019C20.5066 56.9096 23.1096 59.2263 23.1096 63.8583C23.1096 66.9814 22.0031 69.0249 19.7913 69.9873C21.1186 70.4818 22.1202 71.1915 22.7974 72.1148C23.4739 73.0388 23.8125 74.4122 23.8125 76.2334V77.0531C23.8125 79.9682 23.1031 82.0957 21.6849 83.4357C20.2664 84.7767 18.36 85.4466 15.9659 85.4466H7.29905C6.49223 85.4466 5.848 85.2647 5.36682 84.9C4.8847 84.5357 4.64447 84.1063 4.64447 83.6117ZM10.6955 67.6449H14.7946C15.4972 67.6449 16.0438 67.3783 16.4341 66.8449C16.8245 66.3117 17.0195 65.6802 17.0195 64.9513C17.0195 64.223 16.8245 63.5849 16.4341 63.0383C16.0438 62.492 15.4972 62.2185 14.7946 62.2185H10.6955V67.6449ZM10.6955 80.1371H14.5993C16.6812 80.1371 17.7224 78.9404 17.7224 76.5456V75.9209C17.7224 73.5266 16.6812 72.3294 14.5993 72.3294H10.6955V80.1371Z" fill="url(#paint95_linear_25_133)"/>
<path d="M26.6616 76.4677V66.1225C26.6616 62.9475 27.5332 60.6181 29.2772 59.1345C31.0205 57.651 33.3374 56.9094 36.2261 56.9094C39.1407 56.9094 41.4701 57.651 43.2139 59.1345C44.9572 60.6181 45.8294 62.9475 45.8294 66.1225V76.4677C45.8294 79.643 44.9572 81.9722 43.2139 83.4555C41.4699 84.9388 39.1407 85.6807 36.2261 85.6807C33.3374 85.6807 31.0207 84.9388 29.2772 83.4555C27.5334 81.9722 26.6616 79.643 26.6616 76.4677ZM32.7515 76.4677C32.7515 79.0703 33.9092 80.3715 36.2259 80.3715C38.5682 80.3715 39.7395 79.0703 39.7395 76.4677V66.1225C39.7395 63.5204 38.5685 62.2185 36.2259 62.2185C33.9092 62.2185 32.7515 63.5204 32.7515 66.1225V76.4677Z" fill="url(#paint96_linear_25_133)"/>
<path d="M49.7332 83.5727V58.783C49.7332 58.1847 50.032 57.723 50.6311 57.3974C51.2294 57.0722 51.9449 56.9096 52.7781 56.9096C53.9494 56.9096 54.8144 57.079 55.3741 57.4169C55.9334 57.7555 56.5647 58.6016 57.2675 59.9546L63.5918 72.0174V58.7444C63.5918 58.1458 63.8906 57.6905 64.4896 57.3781C65.088 57.0656 65.8035 56.9096 66.6367 56.9096C67.4692 56.9096 68.1847 57.0656 68.7838 57.3781C69.3821 57.6905 69.6817 58.1458 69.6817 58.7444V83.5729C69.6817 84.172 69.3821 84.6336 68.7838 84.9588C68.1847 85.2844 67.4692 85.4468 66.6367 85.4468C64.9708 85.4468 63.8388 84.9002 63.2402 83.807L55.8231 70.2997V83.5727C55.8231 84.1717 55.5238 84.6334 54.9252 84.9585C54.3261 85.2842 53.6108 85.4466 52.7781 85.4466C51.9449 85.4466 51.2294 85.2842 50.6311 84.9585C50.032 84.6334 49.7332 84.1715 49.7332 83.5727Z" fill="url(#paint97_linear_25_133)"/>
<path d="M73.7805 76.4677V58.7442C73.7805 58.1456 74.0732 57.6903 74.6588 57.3778C75.2445 57.0654 75.9668 56.9094 76.8254 56.9094C77.6581 56.9094 78.3734 57.0654 78.9725 57.3778C79.5711 57.6903 79.8703 58.1456 79.8703 58.7442V76.4677C79.8703 79.0703 81.1195 80.3715 83.6181 80.3715C86.1165 80.3715 87.3659 79.0703 87.3659 76.4677V58.7442C87.3659 58.1456 87.6586 57.6903 88.2442 57.3778C88.8299 57.0654 89.5522 56.9094 90.4111 56.9094C91.2435 56.9094 91.9591 57.0654 92.5581 57.3778C93.1565 57.6903 93.456 58.1456 93.456 58.7442V76.4677C93.456 79.643 92.5581 81.9722 90.7623 83.4555C88.9666 84.9388 86.5854 85.6807 83.6183 85.6807C80.6252 85.6807 78.2372 84.9388 76.4548 83.4555C74.6713 81.9722 73.7805 79.643 73.7805 76.4677Z" fill="url(#paint98_linear_25_133)"/>
<path d="M96.1878 80.7618C96.1878 80.0336 96.4544 79.3047 96.9882 78.5757C97.5214 77.8475 98.1398 77.4828 98.8426 77.4828C99.2329 77.4828 99.6685 77.6407 100.15 77.9562C100.632 78.272 101.074 78.6216 101.478 79.0054C101.881 79.3896 102.447 79.7393 103.176 80.0545C103.904 80.3703 104.672 80.528 105.479 80.528C106.494 80.528 107.378 80.3131 108.134 79.884C108.888 79.4545 109.266 78.8103 109.266 77.9515C109.266 77.0924 108.842 76.3381 107.997 75.6873C107.151 75.0369 106.123 74.4447 104.913 73.911C103.703 73.3778 102.486 72.779 101.263 72.1153C100.039 71.4517 99.0047 70.5087 98.1593 69.2851C97.3132 68.0621 96.8906 66.6049 96.8906 64.9129C96.8906 62.1541 97.8664 60.0917 99.8184 58.7251C101.77 57.3588 104.125 56.6757 106.884 56.6757C107.561 56.6757 108.27 56.716 109.012 56.7964C109.753 56.8771 110.586 57.0313 111.51 57.2595C112.434 57.4875 113.189 57.856 113.775 58.3654C114.36 58.8752 114.653 59.492 114.653 60.2155C114.653 60.9033 114.438 61.6171 114.009 62.3576C113.58 63.0981 112.987 63.4682 112.233 63.4682C111.92 63.4682 111.257 63.2211 110.242 62.7265C109.227 62.2324 108.108 61.9849 106.884 61.9849C105.583 61.9849 104.607 62.2129 103.957 62.668C103.306 63.1235 102.981 63.6769 102.981 64.3273C102.981 64.9261 103.286 65.4727 103.898 65.9665C104.509 66.4614 105.271 66.8842 106.182 67.2355C107.092 67.5868 108.088 68.0426 109.168 68.6018C110.248 69.1618 111.244 69.7731 112.155 70.4367C113.065 71.1004 113.827 72.0313 114.438 73.228C115.05 74.4254 115.356 75.7915 115.356 77.327C115.356 80.0108 114.458 82.1 112.662 83.5953C110.866 85.0903 108.511 85.8374 105.596 85.8374C103.072 85.8374 100.873 85.3171 98.9988 84.2757C97.1247 83.2345 96.1878 82.0635 96.1878 80.7618Z" fill="url(#paint99_linear_25_133)"/>
</g>
<defs>
<linearGradient id="paint0_linear_25_133" x1="25.7181" y1="34.6035" x2="93.7494" y2="102.635" gradientUnits="userSpaceOnUse">
<stop stop-color="#FFD945"/>
<stop offset="0.3043" stop-color="#FFCD3E"/>
<stop offset="0.8558" stop-color="#FFAD2B"/>
<stop offset="1" stop-color="#FFA325"/>
</linearGradient>
<linearGradient id="paint1_linear_25_133" x1="62.2395" y1="71.1249" x2="26.1835" y2="35.0689" gradientUnits="userSpaceOnUse">
<stop stop-color="#FFD945" stop-opacity="0"/>
<stop offset="1" stop-color="#FBED21"/>
</linearGradient>
<linearGradient id="paint2_linear_25_133" x1="60.7696" y1="69.615" x2="118.176" y2="124.028" gradientUnits="userSpaceOnUse">
<stop stop-color="#E87264" stop-opacity="0"/>
<stop offset="1" stop-color="#FF7044"/>
</linearGradient>
<linearGradient id="paint3_linear_25_133" x1="85.1607" y1="94.0461" x2="30.5671" y2="39.4525" gradientUnits="userSpaceOnUse">
<stop stop-color="#FFD945"/>
<stop offset="0.3043" stop-color="#FFCD3E"/>
<stop offset="0.8558" stop-color="#FFAD2B"/>
<stop offset="1" stop-color="#FFA325"/>
</linearGradient>
<linearGradient id="paint4_linear_25_133" x1="36.6049" y1="45.4903" x2="87.3675" y2="96.2529" gradientUnits="userSpaceOnUse">
<stop stop-color="#FFD945"/>
<stop offset="0.3043" stop-color="#FFCD3E"/>
<stop offset="0.8558" stop-color="#FFAD2B"/>
<stop offset="1" stop-color="#FFA325"/>
</linearGradient>
<linearGradient id="paint5_linear_25_133" x1="61.5464" y1="113.035" x2="55.2017" y2="106.69" gradientUnits="userSpaceOnUse">
<stop stop-color="#FFD945"/>
<stop offset="0.3043" stop-color="#FFCD3E"/>
<stop offset="0.8558" stop-color="#FFAD2B"/>
<stop offset="1" stop-color="#FFA325"/>
</linearGradient>
<linearGradient id="paint6_linear_25_133" x1="58.9729" y1="110.461" x2="61.0565" y2="112.545" gradientUnits="userSpaceOnUse">
<stop stop-color="#FF7044"/>
<stop offset="1" stop-color="#F82814"/>
</linearGradient>
<linearGradient id="paint7_linear_25_133" x1="61.5464" y1="27.8287" x2="55.2017" y2="21.484" gradientUnits="userSpaceOnUse">
<stop stop-color="#FFD945"/>
<stop offset="0.3043" stop-color="#FFCD3E"/>
<stop offset="0.8558" stop-color="#FFAD2B"/>
<stop offset="1" stop-color="#FFA325"/>
</linearGradient>
<linearGradient id="paint8_linear_25_133" x1="58.9729" y1="25.2553" x2="61.0565" y2="27.3388" gradientUnits="userSpaceOnUse">
<stop stop-color="#FF7044"/>
<stop offset="1" stop-color="#F82814"/>
</linearGradient>
<linearGradient id="paint9_linear_25_133" x1="15.8508" y1="70.4318" x2="22.1955" y2="64.087" gradientUnits="userSpaceOnUse">
<stop stop-color="#FFD945"/>
<stop offset="0.3043" stop-color="#FFCD3E"/>
<stop offset="0.8558" stop-color="#FFAD2B"/>
<stop offset="1" stop-color="#FFA325"/>
</linearGradient>
<linearGradient id="paint10_linear_25_133" x1="18.4242" y1="67.8583" x2="16.3405" y2="69.9418" gradientUnits="userSpaceOnUse">
<stop stop-color="#FF7044"/>
<stop offset="1" stop-color="#F82814"/>
</linearGradient>
<linearGradient id="paint11_linear_25_133" x1="101.057" y1="70.4318" x2="107.401" y2="64.0871" gradientUnits="userSpaceOnUse">
<stop stop-color="#FFD945"/>
<stop offset="0.3043" stop-color="#FFCD3E"/>
<stop offset="0.8558" stop-color="#FFAD2B"/>
<stop offset="1" stop-color="#FFA325"/>
</linearGradient>
<linearGradient id="paint12_linear_25_133" x1="103.63" y1="67.8583" x2="101.547" y2="69.9418" gradientUnits="userSpaceOnUse">
<stop stop-color="#FF7044"/>
<stop offset="1" stop-color="#F82814"/>
</linearGradient>
<linearGradient id="paint13_linear_25_133" x1="29.9286" y1="101.181" x2="29.9288" y2="92.21" gradientUnits="userSpaceOnUse">
<stop stop-color="#FFD945"/>
<stop offset="0.3043" stop-color="#FFCD3E"/>
<stop offset="0.8558" stop-color="#FFAD2B"/>
<stop offset="1" stop-color="#FFA325"/>
</linearGradient>
<linearGradient id="paint14_linear_25_133" x1="29.8493" y1="97.5425" x2="29.8493" y2="100.489" gradientUnits="userSpaceOnUse">
<stop stop-color="#FF7044"/>
<stop offset="1" stop-color="#F82814"/>
</linearGradient>
<linearGradient id="paint15_linear_25_133" x1="90.1699" y1="40.9401" x2="90.17" y2="31.9688" gradientUnits="userSpaceOnUse">
<stop stop-color="#FFD945"/>
<stop offset="0.3043" stop-color="#FFCD3E"/>
<stop offset="0.8558" stop-color="#FFAD2B"/>
<stop offset="1" stop-color="#FFA325"/>
</linearGradient>
<linearGradient id="paint16_linear_25_133" x1="90.0905" y1="37.3012" x2="90.0905" y2="40.2477" gradientUnits="userSpaceOnUse">
<stop stop-color="#FF7044"/>
<stop offset="1" stop-color="#F82814"/>
</linearGradient>
<linearGradient id="paint17_linear_25_133" x1="27.6498" y1="38.7954" x2="36.621" y2="38.7952" gradientUnits="userSpaceOnUse">
<stop stop-color="#FFD945"/>
<stop offset="0.3043" stop-color="#FFCD3E"/>
<stop offset="0.8558" stop-color="#FFAD2B"/>
<stop offset="1" stop-color="#FFA325"/>
</linearGradient>
<linearGradient id="paint18_linear_25_133" x1="31.2886" y1="38.7157" x2="28.3421" y2="38.7157" gradientUnits="userSpaceOnUse">
<stop stop-color="#FF7044"/>
<stop offset="1" stop-color="#F82814"/>
</linearGradient>
<linearGradient id="paint19_linear_25_133" x1="87.891" y1="99.0366" x2="96.8622" y2="99.0364" gradientUnits="userSpaceOnUse">
<stop stop-color="#FFD945"/>
<stop offset="0.3043" stop-color="#FFCD3E"/>
<stop offset="0.8558" stop-color="#FFAD2B"/>
<stop offset="1" stop-color="#FFA325"/>
</linearGradient>
<linearGradient id="paint20_linear_25_133" x1="91.5298" y1="98.9569" x2="88.5833" y2="98.9569" gradientUnits="userSpaceOnUse">
<stop stop-color="#FF7044"/>
<stop offset="1" stop-color="#F82814"/>
</linearGradient>
<linearGradient id="paint21_linear_25_133" x1="44.8912" y1="110.263" x2="41.4271" y2="101.989" gradientUnits="userSpaceOnUse">
<stop stop-color="#FFD945"/>
<stop offset="0.3043" stop-color="#FFCD3E"/>
<stop offset="0.8558" stop-color="#FFAD2B"/>
<stop offset="1" stop-color="#FFA325"/>
</linearGradient>
<linearGradient id="paint22_linear_25_133" x1="43.2471" y1="106.907" x2="44.3849" y2="109.624" gradientUnits="userSpaceOnUse">
<stop stop-color="#FF7044"/>
<stop offset="1" stop-color="#F82814"/>
</linearGradient>
<linearGradient id="paint23_linear_25_133" x1="77.1872" y1="31.4503" x2="73.7231" y2="23.1772" gradientUnits="userSpaceOnUse">
<stop stop-color="#FFD945"/>
<stop offset="0.3043" stop-color="#FFCD3E"/>
<stop offset="0.8558" stop-color="#FFAD2B"/>
<stop offset="1" stop-color="#FFA325"/>
</linearGradient>
<linearGradient id="paint24_linear_25_133" x1="75.5431" y1="28.0948" x2="76.6807" y2="30.8117" gradientUnits="userSpaceOnUse">
<stop stop-color="#FF7044"/>
<stop offset="1" stop-color="#F82814"/>
</linearGradient>
<linearGradient id="paint25_linear_25_133" x1="18.4946" y1="53.6612" x2="26.7675" y2="50.1971" gradientUnits="userSpaceOnUse">
<stop stop-color="#FFD945"/>
<stop offset="0.3043" stop-color="#FFCD3E"/>
<stop offset="0.8558" stop-color="#FFAD2B"/>
<stop offset="1" stop-color="#FFA325"/>
</linearGradient>
<linearGradient id="paint26_linear_25_133" x1="21.8501" y1="52.0171" x2="19.1329" y2="53.1548" gradientUnits="userSpaceOnUse">
<stop stop-color="#FF7044"/>
<stop offset="1" stop-color="#F82814"/>
</linearGradient>
<linearGradient id="paint27_linear_25_133" x1="97.3066" y1="85.957" x2="105.58" y2="82.4931" gradientUnits="userSpaceOnUse">
<stop stop-color="#FFD945"/>
<stop offset="0.3043" stop-color="#FFCD3E"/>
<stop offset="0.8558" stop-color="#FFAD2B"/>
<stop offset="1" stop-color="#FFA325"/>
</linearGradient>
<linearGradient id="paint28_linear_25_133" x1="100.662" y1="84.3131" x2="97.9451" y2="85.4507" gradientUnits="userSpaceOnUse">
<stop stop-color="#FF7044"/>
<stop offset="1" stop-color="#F82814"/>
</linearGradient>
<linearGradient id="paint29_linear_25_133" x1="19.7512" y1="87.2674" x2="23.1583" y2="78.9622" gradientUnits="userSpaceOnUse">
<stop stop-color="#FFD945"/>
<stop offset="0.3043" stop-color="#FFCD3E"/>
<stop offset="0.8558" stop-color="#FFAD2B"/>
<stop offset="1" stop-color="#FFA325"/>
</linearGradient>
<linearGradient id="paint30_linear_25_133" x1="21.3326" y1="84.0978" x2="20.2136" y2="86.8255" gradientUnits="userSpaceOnUse">
<stop stop-color="#FF7044"/>
<stop offset="1" stop-color="#F82814"/>
</linearGradient>
<linearGradient id="paint31_linear_25_133" x1="98.3952" y1="54.3753" x2="101.802" y2="46.0703" gradientUnits="userSpaceOnUse">
<stop stop-color="#FFD945"/>
<stop offset="0.3043" stop-color="#FFCD3E"/>
<stop offset="0.8558" stop-color="#FFAD2B"/>
<stop offset="1" stop-color="#FFA325"/>
</linearGradient>
<linearGradient id="paint32_linear_25_133" x1="99.9766" y1="51.2059" x2="98.8576" y2="53.9334" gradientUnits="userSpaceOnUse">
<stop stop-color="#FF7044"/>
<stop offset="1" stop-color="#F82814"/>
</linearGradient>
<linearGradient id="paint33_linear_25_133" x1="41.7694" y1="28.7728" x2="50.0746" y2="32.1797" gradientUnits="userSpaceOnUse">
<stop stop-color="#FFD945"/>
<stop offset="0.3043" stop-color="#FFCD3E"/>
<stop offset="0.8558" stop-color="#FFAD2B"/>
<stop offset="1" stop-color="#FFA325"/>
</linearGradient>
<linearGradient id="paint34_linear_25_133" x1="44.9388" y1="30.354" x2="42.2111" y2="29.235" gradientUnits="userSpaceOnUse">
<stop stop-color="#FF7044"/>
<stop offset="1" stop-color="#F82814"/>
</linearGradient>
<linearGradient id="paint35_linear_25_133" x1="74.6615" y1="107.417" x2="82.9664" y2="110.824" gradientUnits="userSpaceOnUse">
<stop stop-color="#FFD945"/>
<stop offset="0.3043" stop-color="#FFCD3E"/>
<stop offset="0.8558" stop-color="#FFAD2B"/>
<stop offset="1" stop-color="#FFA325"/>
</linearGradient>
<linearGradient id="paint36_linear_25_133" x1="77.8306" y1="108.998" x2="75.1033" y2="107.879" gradientUnits="userSpaceOnUse">
<stop stop-color="#FF7044"/>
<stop offset="1" stop-color="#F82814"/>
</linearGradient>
<linearGradient id="paint37_linear_25_133" x1="64.0845" y1="76.7833" x2="10.9261" y2="-26.0073" gradientUnits="userSpaceOnUse">
<stop stop-color="white" stop-opacity="0"/>
<stop offset="1" stop-color="white"/>
</linearGradient>
<linearGradient id="paint38_linear_25_133" x1="51.7551" y1="61.2407" x2="29.6732" y2="41.4428" gradientUnits="userSpaceOnUse">
<stop stop-color="#E87264" stop-opacity="0"/>
<stop offset="1" stop-color="#FF7044"/>
</linearGradient>
<linearGradient id="paint39_linear_25_133" x1="76.8256" y1="54.4819" x2="61.8301" y2="28.5659" gradientUnits="userSpaceOnUse">
<stop stop-color="#E87264" stop-opacity="0"/>
<stop offset="1" stop-color="#FF7044"/>
</linearGradient>
<linearGradient id="paint40_linear_25_133" x1="51.6264" y1="20.0099" x2="84.2673" y2="53.8273" gradientUnits="userSpaceOnUse">
<stop stop-color="#FFD945"/>
<stop offset="1" stop-color="#FBB27E"/>
</linearGradient>
<linearGradient id="paint41_linear_25_133" x1="46.6278" y1="21.7842" x2="66.9294" y2="43.4393" gradientUnits="userSpaceOnUse">
<stop stop-color="#FBB27E" stop-opacity="0"/>
<stop offset="1" stop-color="#FF7044"/>
</linearGradient>
<linearGradient id="paint42_linear_25_133" x1="46.0729" y1="36.4251" x2="59.9805" y2="36.4251" gradientUnits="userSpaceOnUse">
<stop stop-color="#FFD945" stop-opacity="0"/>
<stop offset="1" stop-color="#FBED21"/>
</linearGradient>
<linearGradient id="paint43_linear_25_133" x1="56.6819" y1="29.8423" x2="80.4424" y2="56.6103" gradientUnits="userSpaceOnUse">
<stop stop-color="#E87264" stop-opacity="0"/>
<stop offset="1" stop-color="#FF7044"/>
</linearGradient>
<linearGradient id="paint44_linear_25_133" x1="43.0739" y1="36.951" x2="73.6014" y2="35.8983" gradientUnits="userSpaceOnUse">
<stop stop-color="#E87264" stop-opacity="0"/>
<stop offset="1" stop-color="#FF7044"/>
</linearGradient>
<linearGradient id="paint45_linear_25_133" x1="70.3616" y1="49.248" x2="62.5419" y2="14.5099" gradientUnits="userSpaceOnUse">
<stop stop-color="#FFD945" stop-opacity="0"/>
<stop offset="1" stop-color="#FBED21"/>
</linearGradient>
<linearGradient id="paint46_linear_25_133" x1="48.2355" y1="19.5381" x2="52.8974" y2="39.6894" gradientUnits="userSpaceOnUse">
<stop stop-color="#FFD945"/>
<stop offset="1" stop-color="#FBB27E"/>
</linearGradient>
<linearGradient id="paint47_linear_25_133" x1="68.0856" y1="19.2661" x2="39.2125" y2="7.83714" gradientUnits="userSpaceOnUse">
<stop stop-color="#E87264" stop-opacity="0"/>
<stop offset="1" stop-color="#FF7044"/>
</linearGradient>
<linearGradient id="paint48_linear_25_133" x1="55.5499" y1="9.78867" x2="70.4376" y2="35.2033" gradientUnits="userSpaceOnUse">
<stop stop-color="#FBB27E" stop-opacity="0"/>
<stop offset="1" stop-color="#FF7044"/>
</linearGradient>
<linearGradient id="paint49_linear_25_133" x1="74.0191" y1="19.3934" x2="46.3489" y2="43.9059" gradientUnits="userSpaceOnUse">
<stop stop-color="#FFD945" stop-opacity="0"/>
<stop offset="1" stop-color="#FBED21"/>
</linearGradient>
<linearGradient id="paint50_linear_25_133" x1="69.0466" y1="29.3555" x2="78.6711" y2="1.68513" gradientUnits="userSpaceOnUse">
<stop stop-color="#E87264" stop-opacity="0"/>
<stop offset="1" stop-color="#FF7044"/>
</linearGradient>
<linearGradient id="paint51_linear_25_133" x1="60.8873" y1="29.3494" x2="47.6101" y2="17.4456" gradientUnits="userSpaceOnUse">
<stop stop-color="#FFD945" stop-opacity="0"/>
<stop offset="1" stop-color="#FBED21"/>
</linearGradient>
<linearGradient id="paint52_linear_25_133" x1="24.2555" y1="33.8256" x2="48.6082" y2="59.056" gradientUnits="userSpaceOnUse">
<stop stop-color="#FFD945"/>
<stop offset="1" stop-color="#FBB27E"/>
</linearGradient>
<linearGradient id="paint53_linear_25_133" x1="20.5264" y1="35.1494" x2="35.6729" y2="51.3058" gradientUnits="userSpaceOnUse">
<stop stop-color="#FBB27E" stop-opacity="0"/>
<stop offset="1" stop-color="#FF7044"/>
</linearGradient>
<linearGradient id="paint54_linear_25_133" x1="20.1125" y1="46.0727" x2="30.4885" y2="46.0727" gradientUnits="userSpaceOnUse">
<stop stop-color="#FFD945" stop-opacity="0"/>
<stop offset="1" stop-color="#FBED21"/>
</linearGradient>
<linearGradient id="paint55_linear_25_133" x1="28.0275" y1="41.1614" x2="45.7546" y2="61.1324" gradientUnits="userSpaceOnUse">
<stop stop-color="#E87264" stop-opacity="0"/>
<stop offset="1" stop-color="#FF7044"/>
</linearGradient>
<linearGradient id="paint56_linear_25_133" x1="17.8748" y1="46.4651" x2="40.6508" y2="45.6797" gradientUnits="userSpaceOnUse">
<stop stop-color="#E87264" stop-opacity="0"/>
<stop offset="1" stop-color="#FF7044"/>
</linearGradient>
<linearGradient id="paint57_linear_25_133" x1="38.2336" y1="55.6395" x2="32.3995" y2="29.7223" gradientUnits="userSpaceOnUse">
<stop stop-color="#FFD945" stop-opacity="0"/>
<stop offset="1" stop-color="#FBED21"/>
</linearGradient>
<linearGradient id="paint58_linear_25_133" x1="21.7259" y1="33.4739" x2="25.204" y2="48.508" gradientUnits="userSpaceOnUse">
<stop stop-color="#FFD945"/>
<stop offset="1" stop-color="#FBB27E"/>
</linearGradient>
<linearGradient id="paint59_linear_25_133" x1="36.5355" y1="33.2708" x2="14.9939" y2="24.7437" gradientUnits="userSpaceOnUse">
<stop stop-color="#E87264" stop-opacity="0"/>
<stop offset="1" stop-color="#FF7044"/>
</linearGradient>
<linearGradient id="paint60_linear_25_133" x1="27.1831" y1="26.2" x2="38.2904" y2="45.1611" gradientUnits="userSpaceOnUse">
<stop stop-color="#FBB27E" stop-opacity="0"/>
<stop offset="1" stop-color="#FF7044"/>
</linearGradient>
<linearGradient id="paint61_linear_25_133" x1="40.9624" y1="33.3659" x2="20.3183" y2="51.6539" gradientUnits="userSpaceOnUse">
<stop stop-color="#FFD945" stop-opacity="0"/>
<stop offset="1" stop-color="#FBED21"/>
</linearGradient>
<linearGradient id="paint62_linear_25_133" x1="37.2525" y1="40.7981" x2="44.4329" y2="20.1541" gradientUnits="userSpaceOnUse">
<stop stop-color="#E87264" stop-opacity="0"/>
<stop offset="1" stop-color="#FF7044"/>
</linearGradient>
<linearGradient id="paint63_linear_25_133" x1="31.1649" y1="40.7936" x2="21.2593" y2="31.9127" gradientUnits="userSpaceOnUse">
<stop stop-color="#FFD945" stop-opacity="0"/>
<stop offset="1" stop-color="#FBED21"/>
</linearGradient>
<linearGradient id="paint64_linear_25_133" x1="98.8732" y1="63.9432" x2="87.3374" y2="48.0952" gradientUnits="userSpaceOnUse">
<stop stop-color="#E87264" stop-opacity="0"/>
<stop offset="1" stop-color="#FF7044"/>
</linearGradient>
<linearGradient id="paint65_linear_25_133" x1="83.2496" y1="33.8256" x2="107.602" y2="59.056" gradientUnits="userSpaceOnUse">
<stop stop-color="#FFD945"/>
<stop offset="1" stop-color="#FBB27E"/>
</linearGradient>
<linearGradient id="paint66_linear_25_133" x1="79.5202" y1="35.1494" x2="94.6668" y2="51.3058" gradientUnits="userSpaceOnUse">
<stop stop-color="#FBB27E" stop-opacity="0"/>
<stop offset="1" stop-color="#FF7044"/>
</linearGradient>
<linearGradient id="paint67_linear_25_133" x1="79.1064" y1="46.0727" x2="89.4823" y2="46.0727" gradientUnits="userSpaceOnUse">
<stop stop-color="#FFD945" stop-opacity="0"/>
<stop offset="1" stop-color="#FBED21"/>
</linearGradient>
<linearGradient id="paint68_linear_25_133" x1="87.0214" y1="41.1614" x2="104.748" y2="61.1324" gradientUnits="userSpaceOnUse">
<stop stop-color="#E87264" stop-opacity="0"/>
<stop offset="1" stop-color="#FF7044"/>
</linearGradient>
<linearGradient id="paint69_linear_25_133" x1="76.8689" y1="46.4651" x2="99.6447" y2="45.6797" gradientUnits="userSpaceOnUse">
<stop stop-color="#E87264" stop-opacity="0"/>
<stop offset="1" stop-color="#FF7044"/>
</linearGradient>
<linearGradient id="paint70_linear_25_133" x1="97.2275" y1="55.6395" x2="91.3934" y2="29.7223" gradientUnits="userSpaceOnUse">
<stop stop-color="#FFD945" stop-opacity="0"/>
<stop offset="1" stop-color="#FBED21"/>
</linearGradient>
<linearGradient id="paint71_linear_25_133" x1="80.7198" y1="33.4739" x2="84.1979" y2="48.508" gradientUnits="userSpaceOnUse">
<stop stop-color="#FFD945"/>
<stop offset="1" stop-color="#FBB27E"/>
</linearGradient>
<linearGradient id="paint72_linear_25_133" x1="95.5294" y1="33.2708" x2="73.9878" y2="24.7437" gradientUnits="userSpaceOnUse">
<stop stop-color="#E87264" stop-opacity="0"/>
<stop offset="1" stop-color="#FF7044"/>
</linearGradient>
<linearGradient id="paint73_linear_25_133" x1="86.1769" y1="26.2" x2="97.2842" y2="45.1611" gradientUnits="userSpaceOnUse">
<stop stop-color="#FBB27E" stop-opacity="0"/>
<stop offset="1" stop-color="#FF7044"/>
</linearGradient>
<linearGradient id="paint74_linear_25_133" x1="99.9565" y1="33.3659" x2="79.3122" y2="51.6539" gradientUnits="userSpaceOnUse">
<stop stop-color="#FFD945" stop-opacity="0"/>
<stop offset="1" stop-color="#FBED21"/>
</linearGradient>
<linearGradient id="paint75_linear_25_133" x1="96.2463" y1="40.7981" x2="103.427" y2="20.1541" gradientUnits="userSpaceOnUse">
<stop stop-color="#E87264" stop-opacity="0"/>
<stop offset="1" stop-color="#FF7044"/>
</linearGradient>
<linearGradient id="paint76_linear_25_133" x1="90.1591" y1="40.7936" x2="80.2532" y2="31.9127" gradientUnits="userSpaceOnUse">
<stop stop-color="#FFD945" stop-opacity="0"/>
<stop offset="1" stop-color="#FBED21"/>
</linearGradient>
<linearGradient id="paint77_linear_25_133" x1="65.2238" y1="100.615" x2="46.7899" y2="82.1812" gradientUnits="userSpaceOnUse">
<stop stop-color="#FFD945"/>
<stop offset="1" stop-color="#FBB27E"/>
</linearGradient>
<linearGradient id="paint78_linear_25_133" x1="56.8" y1="92.9708" x2="64.6165" y2="98.8833" gradientUnits="userSpaceOnUse">
<stop stop-color="#91F27F"/>
<stop offset="1" stop-color="#00B302"/>
</linearGradient>
<linearGradient id="paint79_linear_25_133" x1="60.964" y1="96.4892" x2="57.7012" y2="92.7153" gradientUnits="userSpaceOnUse">
<stop stop-color="#91F27F" stop-opacity="0"/>
<stop offset="1" stop-color="#FFED82"/>
</linearGradient>
<linearGradient id="paint80_linear_25_133" x1="60.4911" y1="95.379" x2="54.8301" y2="86.1343" gradientUnits="userSpaceOnUse">
<stop stop-color="#005A01" stop-opacity="0"/>
<stop offset="1" stop-color="#005A01"/>
</linearGradient>
<linearGradient id="paint81_linear_25_133" x1="61.0202" y1="97.2038" x2="56.9212" y2="90.5101" gradientUnits="userSpaceOnUse">
<stop stop-color="#005A01" stop-opacity="0"/>
<stop offset="1" stop-color="#005A01"/>
</linearGradient>
<linearGradient id="paint82_linear_25_133" x1="51.7301" y1="95.0244" x2="34.8896" y2="78.184" gradientUnits="userSpaceOnUse">
<stop stop-color="#FFD945"/>
<stop offset="1" stop-color="#FBB27E"/>
</linearGradient>
<linearGradient id="paint83_linear_25_133" x1="45.9654" y1="89.8249" x2="51.6318" y2="94.1108" gradientUnits="userSpaceOnUse">
<stop stop-color="#91F27F"/>
<stop offset="1" stop-color="#00B302"/>
</linearGradient>
<linearGradient id="paint84_linear_25_133" x1="48.7165" y1="92.1266" x2="46.7511" y2="88.5494" gradientUnits="userSpaceOnUse">
<stop stop-color="#91F27F" stop-opacity="0"/>
<stop offset="1" stop-color="#FFED82"/>
</linearGradient>
<linearGradient id="paint85_linear_25_133" x1="48.6412" y1="91.5705" x2="44.5372" y2="84.8689" gradientUnits="userSpaceOnUse">
<stop stop-color="#005A01" stop-opacity="0"/>
<stop offset="1" stop-color="#005A01"/>
</linearGradient>
<linearGradient id="paint86_linear_25_133" x1="49.0247" y1="92.8934" x2="46.0532" y2="88.0409" gradientUnits="userSpaceOnUse">
<stop stop-color="#005A01" stop-opacity="0"/>
<stop offset="1" stop-color="#005A01"/>
</linearGradient>
<linearGradient id="paint87_linear_25_133" x1="75.3833" y1="95.248" x2="64.4141" y2="84.2788" gradientUnits="userSpaceOnUse">
<stop stop-color="#FFD945"/>
<stop offset="1" stop-color="#FBB27E"/>
</linearGradient>
<linearGradient id="paint88_linear_25_133" x1="69.3953" y1="89.8249" x2="75.0614" y2="94.1108" gradientUnits="userSpaceOnUse">
<stop stop-color="#91F27F"/>
<stop offset="1" stop-color="#00B302"/>
</linearGradient>
<linearGradient id="paint89_linear_25_133" x1="72.5395" y1="92.5564" x2="69.9449" y2="89.3724" gradientUnits="userSpaceOnUse">
<stop stop-color="#91F27F" stop-opacity="0"/>
<stop offset="1" stop-color="#FFED82"/>
</linearGradient>
<linearGradient id="paint90_linear_25_133" x1="72.0711" y1="91.5705" x2="67.9671" y2="84.8689" gradientUnits="userSpaceOnUse">
<stop stop-color="#005A01" stop-opacity="0"/>
<stop offset="1" stop-color="#005A01"/>
</linearGradient>
<linearGradient id="paint91_linear_25_133" x1="72.4544" y1="92.8934" x2="69.4831" y2="88.0409" gradientUnits="userSpaceOnUse">
<stop stop-color="#005A01" stop-opacity="0"/>
<stop offset="1" stop-color="#005A01"/>
</linearGradient>
<linearGradient id="paint92_linear_25_133" x1="60" y1="94.4282" x2="60" y2="83.2689" gradientUnits="userSpaceOnUse">
<stop stop-color="#E87264" stop-opacity="0"/>
<stop offset="1" stop-color="#FF7044"/>
</linearGradient>
<linearGradient id="paint93_linear_25_133" x1="54.476" y1="53.9792" x2="67.8501" y2="100.181" gradientUnits="userSpaceOnUse">
<stop stop-color="#E4F2FF"/>
<stop offset="1" stop-color="#B2CBFF"/>
</linearGradient>
<linearGradient id="paint94_linear_25_133" x1="60" y1="84.0111" x2="60" y2="45.1758" gradientUnits="userSpaceOnUse">
<stop stop-color="#E4F2FF"/>
<stop offset="1" stop-color="#B2CBFF"/>
</linearGradient>
<linearGradient id="paint95_linear_25_133" x1="18.1351" y1="83.7176" x2="27.5468" y2="107.483" gradientUnits="userSpaceOnUse">
<stop stop-color="#FF7044"/>
<stop offset="1" stop-color="#F82814"/>
</linearGradient>
<linearGradient id="paint96_linear_25_133" x1="38.0428" y1="75.8334" x2="47.4546" y2="99.5983" gradientUnits="userSpaceOnUse">
<stop stop-color="#FF7044"/>
<stop offset="1" stop-color="#F82814"/>
</linearGradient>
<linearGradient id="paint97_linear_25_133" x1="58.3701" y1="67.783" x2="67.7819" y2="91.548" gradientUnits="userSpaceOnUse">
<stop stop-color="#FF7044"/>
<stop offset="1" stop-color="#F82814"/>
</linearGradient>
<linearGradient id="paint98_linear_25_133" x1="79.8887" y1="59.2609" x2="89.3005" y2="83.0256" gradientUnits="userSpaceOnUse">
<stop stop-color="#FF7044"/>
<stop offset="1" stop-color="#F82814"/>
</linearGradient>
<linearGradient id="paint99_linear_25_133" x1="98.1073" y1="52.0456" x2="107.519" y2="75.8103" gradientUnits="userSpaceOnUse">
<stop stop-color="#FF7044"/>
<stop offset="1" stop-color="#F82814"/>
</linearGradient>
<clipPath id="clip0_25_133">
<rect width="120" height="120" fill="white"/>
</clipPath>
</defs>
</svg>
