<svg width="131" height="30" viewBox="0 0 131 30" fill="none" xmlns="http://www.w3.org/2000/svg">
<path d="M127.106 0C125.455 0 123.98 1.07916 123.449 2.6979L114.897 29.3772H122.977L130.763 5.09604C131.53 2.578 129.701 0 127.106 0Z" fill="white"/>
<path d="M71.2502 0.599518H46.0059L43.7056 7.79392H61.4002L38.5742 23.3818C36.8047 24.5809 36.5098 27.039 37.8664 28.6577C39.046 30.0966 41.0514 30.3364 42.5849 29.3172L65.5879 13.6094L60.5154 29.3771H68.596L75.7918 6.89462C76.7355 3.77705 74.4942 0.599518 71.2502 0.599518Z" fill="#00C7B1"/>
<path d="M9.20118 0.599518L0 29.3771H8.08052L14.9814 7.79392H31.4374L20.2308 15.468C18.5793 16.6071 18.0485 18.8253 19.1691 20.504C20.2898 22.1827 22.4721 22.6024 24.1236 21.5233L38.1023 11.9307C43.0568 8.51336 40.6975 0.599518 34.6814 0.599518H9.20118Z" fill="white"/>
<path d="M110.768 0.599518H85.3468L76.0867 29.3771H84.1672L91.0681 7.79392H107.524L92.9555 17.8061L101.98 28.7177C103.159 30.1565 105.165 30.3964 106.698 29.3771C108.468 28.1781 108.763 25.72 107.406 24.1012L103.454 19.305L114.189 11.9907C119.143 8.51336 116.784 0.599518 110.768 0.599518Z" fill="white"/>
</svg>
