<svg width="100" height="100" viewBox="0 0 100 100" fill="none" xmlns="http://www.w3.org/2000/svg">
<g clip-path="url(#clip0_25_467)">
<path fill-rule="evenodd" clip-rule="evenodd" d="M66.3793 71.8621V89.6552C66.3793 95.3685 61.7478 100 56.0345 100H18.1034C12.3901 100 7.75861 95.3685 7.75861 89.6552V10.3448C7.75861 4.63154 12.3901 0 18.1034 0H56.0345C61.7478 0 66.3793 4.63154 66.3793 10.3448V71.8621Z" fill="#90BAE1"/>
<path fill-rule="evenodd" clip-rule="evenodd" d="M66.3793 10.3448C66.3793 10.3448 10.8793 8.7069 7.89654 91.2241C7.79862 90.707 7.75241 90.1814 7.75861 89.6552V10.3448C7.75861 4.63154 12.3901 0 18.1034 0H56.0345C61.7478 0 66.3793 4.63154 66.3793 10.3448Z" fill="#B0D3F0"/>
<path fill-rule="evenodd" clip-rule="evenodd" d="M56.0345 0L53.8862 5.36897C53.1009 7.33258 51.1993 8.62034 49.0845 8.62069H25.0535C22.9386 8.62034 21.037 7.33258 20.2517 5.36897L18.1035 0" fill="#464F5D"/>
<path fill-rule="evenodd" clip-rule="evenodd" d="M56.0345 93.1034H18.1034C17.1512 93.1034 16.3793 92.3315 16.3793 91.3793C16.3793 90.4271 17.1512 89.6552 18.1034 89.6552H56.0345C56.9867 89.6552 57.7586 90.4271 57.7586 91.3793C57.7586 92.3315 56.9867 93.1034 56.0345 93.1034Z" fill="#464F5D"/>
<path fill-rule="evenodd" clip-rule="evenodd" d="M99.1379 69.8276V91.3793C99.1379 93.6687 98.2273 95.864 96.6069 97.4812C94.9865 99.0984 92.7893 100.005 90.5 100H71.5172C69.4874 100.001 67.559 99.1129 66.2414 97.569V97.5517C65.9382 97.1948 65.6724 96.8077 65.4483 96.3966C64.1897 93.9569 62.5807 91.7147 60.6724 89.7414C57.1839 86.417 53.4868 83.3187 49.6034 80.4655C48.2223 79.4417 47.4096 77.8227 47.4138 76.1035C47.4095 74.1824 48.4151 72.4004 50.0618 71.4109C51.7085 70.4215 53.754 70.3702 55.4483 71.2759L64.5862 75.8276V45.6897C64.5827 44.542 65.0428 43.4416 65.8621 42.6379C66.6771 41.8271 67.7814 41.3742 68.931 41.3793C69.2318 41.3815 69.5318 41.4104 69.8276 41.4655C71.8286 41.8855 73.265 43.6451 73.2758 45.6897V59.4828C73.2758 57.1022 75.2057 55.1724 77.5862 55.1724C77.8756 55.1746 78.1642 55.2035 78.4483 55.2586C80.4591 55.6622 81.9037 57.4318 81.8965 59.4828V64.6552C81.8965 62.2746 83.8263 60.3448 86.2069 60.3448C86.4963 60.347 86.7848 60.3759 87.0689 60.431C89.0798 60.8346 90.5244 62.6042 90.5172 64.6552V69.8276C90.5172 67.4471 92.447 65.5172 94.8276 65.5172C97.2081 65.5172 99.1379 67.4471 99.1379 69.8276Z" fill="#FDD7AD"/>
<path fill-rule="evenodd" clip-rule="evenodd" d="M73.2758 22.4138V45.6897C73.2597 43.9408 72.1981 42.3715 70.5808 41.7057C68.9634 41.04 67.1047 41.4072 65.8621 42.6379C65.0428 43.4416 64.5827 44.542 64.5862 45.6897V55.1724H6.03447C3.17783 55.1724 0.862061 52.8567 0.862061 50V22.4138C0.862061 19.5572 3.17783 17.2414 6.03447 17.2414H68.1034C70.9601 17.2414 73.2758 19.5572 73.2758 22.4138Z" fill="#FF5364"/>
<path d="M26.7241 31.0345C26.7241 27.2256 23.6364 24.1379 19.8276 24.1379H12.931C11.9788 24.1379 11.2069 24.9099 11.2069 25.8621V46.5517C11.2069 47.5039 11.9788 48.2759 12.931 48.2759H19.8276C22.7035 48.2886 25.2827 46.508 26.2901 43.8143C27.2976 41.1206 26.5198 38.0845 24.3414 36.2069C25.8484 34.9101 26.7179 33.0227 26.7241 31.0345ZM23.2758 41.3793C23.2758 43.2837 21.732 44.8276 19.8276 44.8276H14.6552V37.931H19.8276C21.732 37.931 23.2758 39.4749 23.2758 41.3793ZM14.6552 34.4828V27.5862H19.8276C21.732 27.5862 23.2758 29.1301 23.2758 31.0345C23.2758 32.9389 21.732 34.4828 19.8276 34.4828H14.6552Z" fill="white"/>
<path fill-rule="evenodd" clip-rule="evenodd" d="M42.2414 27.5862C43.1936 27.5862 43.9655 26.8143 43.9655 25.8621C43.9655 24.9099 43.1936 24.1379 42.2414 24.1379H31.8965C30.9443 24.1379 30.1724 24.9099 30.1724 25.8621V46.5517C30.1724 47.5039 30.9443 48.2759 31.8965 48.2759H42.2414C43.1936 48.2759 43.9655 47.5039 43.9655 46.5517C43.9655 45.5995 43.1936 44.8276 42.2414 44.8276H33.6207V37.931H42.2414C43.1936 37.931 43.9655 37.1591 43.9655 36.2069C43.9655 35.2547 43.1936 34.4828 42.2414 34.4828H33.6207V27.5862H42.2414Z" fill="white"/>
<path fill-rule="evenodd" clip-rule="evenodd" d="M62.931 24.1379H49.1379C48.1857 24.1379 47.4138 24.9099 47.4138 25.8621C47.4138 26.8143 48.1857 27.5862 49.1379 27.5862H54.3103V46.5517C54.3103 47.5039 55.0823 48.2759 56.0345 48.2759C56.9867 48.2759 57.7586 47.5039 57.7586 46.5517V27.5862H62.931C63.8832 27.5862 64.6552 26.8143 64.6552 25.8621C64.6552 24.9099 63.8832 24.1379 62.931 24.1379Z" fill="white"/>
<path fill-rule="evenodd" clip-rule="evenodd" d="M81.8965 59.4827V74.1379C81.8965 75.0901 81.1246 75.8621 80.1724 75.8621C79.2202 75.8621 78.4483 75.0901 78.4483 74.1379V55.2586C80.4591 55.6622 81.9037 57.4318 81.8965 59.4827Z" fill="#F9C795"/>
<path fill-rule="evenodd" clip-rule="evenodd" d="M90.5172 64.6552V74.1379C90.5172 75.0901 89.7453 75.8621 88.7931 75.8621C87.8409 75.8621 87.069 75.0901 87.069 74.1379V60.431C89.0798 60.8346 90.5244 62.6042 90.5172 64.6552Z" fill="#F9C795"/>
<path fill-rule="evenodd" clip-rule="evenodd" d="M73.2759 45.6897V74.1379C73.2759 75.0901 72.5039 75.8621 71.5517 75.8621C70.5995 75.8621 69.8276 75.0901 69.8276 74.1379V41.4655C71.8286 41.8854 73.265 43.6451 73.2759 45.6897Z" fill="#F9C795"/>
</g>
<defs>
<clipPath id="clip0_25_467">
<rect width="100" height="100" fill="white"/>
</clipPath>
</defs>
</svg>
