<svg width="105" height="118" viewBox="0 0 105 118" fill="none" xmlns="http://www.w3.org/2000/svg">
<path d="M85.8278 90.7602L45.256 115.23L3.6595 92.102L3.07401 48.2854L44.6705 71.4135L85.2423 46.968L85.8278 90.7602Z" fill="#FFD06C"/>
<path d="M85.2338 46.9622L85.8265 90.7716L45.2679 115.232L44.6752 71.4223L85.2338 46.9622Z" fill="#FFD06C"/>
<path d="M44.6752 71.4223L45.2679 115.232L3.66648 92.1061L3.07382 48.2966L44.6752 71.4223Z" fill="#FEBC1F"/>
<path d="M23.2176 62.4564L19.6626 62.5142L19.6512 61.812L16.9761 61.8554L17.4868 99.7888L27.4205 105.311L26.9219 68.2349L23.3125 68.2936L23.2176 62.4564Z" fill="#DF3260"/>
<path d="M64.3079 61.9236L67.8628 61.8659L67.8514 61.1636L70.5266 61.1202L71.2581 99.5576L61.5097 105.437L60.7933 67.8195L64.4027 67.7608L64.3079 61.9236Z" fill="#E93565"/>
<path d="M87.194 54.8237L44.2313 81.0747L0.146375 56.2388L0 46.8461L42.9871 20.6196L87.0721 45.431L87.194 54.8237Z" fill="#FFD06C"/>
<path d="M87.0793 45.4285L44.1025 71.6604L0.010437 46.8426L42.9873 20.6107L87.0793 45.4285Z" fill="#FFD06C"/>
<path d="M43.0708 25.3666L8.12134 46.6994L44.0202 66.905L78.9676 45.5723L43.0708 25.3666Z" fill="#FEBC1F"/>
<path d="M60.0838 30.2335L16.9428 56.3732L26.851 61.9502L70.2332 35.9463L60.0838 30.2335Z" fill="#F45170"/>
<path d="M87.0793 45.4284L87.2057 54.8318L44.2289 81.0638L44.1024 71.6604L87.0793 45.4284Z" fill="#FEBC1F"/>
<path d="M44.1025 71.6604L44.2289 81.0638L0.136897 56.246L0.010437 46.8427L44.1025 71.6604Z" fill="#F9A83D"/>
<path d="M26.851 61.9502L26.9617 71.3447L17.0301 65.7546L16.9427 56.3732L26.851 61.9502Z" fill="#E93565"/>
<path d="M60.6599 61.5357L60.8545 70.9289L70.5992 65.0191L70.3818 55.6398L60.6599 61.5357Z" fill="#DF3260"/>
<path d="M16.3282 36.8826L60.66 61.5357L70.3818 55.6398L26.2534 30.8246L16.3282 36.8826Z" fill="#E93565"/>
<path d="M62.6753 52.3353C62.3337 49.2857 59.8209 45.3822 56.5761 44.6259C56.6736 44.577 56.7469 44.5283 56.82 44.4551C58.357 43.0158 57.9423 39.4782 55.8929 36.5505C55.0147 35.3307 54.0145 34.4036 53.0141 33.867C51.8431 33.2082 50.6965 33.0618 49.8181 33.5254C49.4523 30.793 47.5004 27.7678 45.1584 26.4747C43.8653 25.7428 42.6943 25.694 41.8648 26.2063L39.8886 27.3773C39.1323 26.426 38.2541 25.6453 37.3758 25.1573C35.9852 24.3766 34.9606 24.4497 34.0822 24.889L30.9839 26.7674C30.9595 26.7918 30.9106 26.8163 30.8862 26.8163L30.8375 26.8651C29.8128 27.475 29.398 28.9388 29.6177 30.6466C29.52 30.6954 29.4225 30.7197 29.3494 30.7685L26.0801 32.7202C26.129 32.7202 26.1777 32.6958 26.2021 32.6958C25.4702 33.0863 24.9578 33.867 24.8114 35.0624C24.5431 37.7948 26.3729 41.4543 28.9345 43.2352C29.0565 43.3329 29.2028 43.406 29.3494 43.5037C32.3257 45.1627 41.2062 47.0167 42.0844 47.1875L42.2308 47.2852C43.109 48.0659 52.087 56.1412 55.0635 57.8002C55.2343 57.8733 55.3562 57.9466 55.4782 57.9953C56.6249 58.4832 57.6007 58.3613 58.3083 57.8489C58.2595 57.8977 58.235 57.9466 58.1862 57.9953L61.431 56.0191C62.3825 55.458 62.8949 54.1407 62.6753 52.3353ZM32.6184 40.137C32.5209 40.0637 32.4232 39.9906 32.3257 39.9417C30.5935 38.7219 29.3249 36.3311 29.3249 34.4036C29.3494 34.428 29.3736 34.428 29.398 34.4525C29.5444 34.5256 29.6908 34.6233 29.8372 34.7208C30.8131 35.404 33.3503 38.2584 36.034 41.4299C34.5702 40.9664 33.3503 40.5272 32.6184 40.137ZM34.7898 31.3296C34.3018 30.3538 34.0822 29.3779 34.0822 28.5485C34.1066 28.5485 34.131 28.5485 34.1554 28.5728C35.1557 29.134 36.1804 30.2075 36.8635 31.5492C37.2539 32.33 37.7661 34.062 38.3273 36.209C36.5951 34.0378 35.2289 32.208 34.7898 31.3296ZM44.3533 39.5026C43.0359 35.2576 41.8405 31.1101 41.8405 29.8903C41.8405 29.8659 41.8405 29.8659 41.8405 29.8414C41.8648 29.8414 41.8892 29.8659 41.938 29.8659C43.7922 30.9149 45.3536 33.501 45.3779 35.6235C45.3779 36.3798 44.9632 37.8192 44.3533 39.5026ZM49.4523 37.1116C49.5742 37.1605 49.6718 37.2093 49.7937 37.258C50.5257 37.6729 51.2576 38.3315 51.8675 39.2099C52.9897 40.7956 53.429 42.6009 53.1362 43.8696C51.4771 44.1868 49.2815 44.4307 47.3053 44.577C47.9397 41.9179 48.7447 38.9902 49.4523 37.1116ZM50.2817 48.0659C52.087 47.9926 53.624 48.0415 54.3316 48.3342C54.478 48.4073 54.6244 48.4562 54.7707 48.5537C56.4541 49.4808 57.9423 51.7254 58.1862 53.7991C58.2106 53.9943 58.2106 54.1651 58.2106 54.3357C56.7957 53.5308 53.4776 50.8227 50.2817 48.0659Z" fill="#E93565"/>
<path d="M42.2962 43.0683L39.0484 45.0268C35.3983 44.1864 31.0202 42.9989 29.3789 42.0882C29.2648 42.0236 29.1641 41.9632 29.0789 41.9025C27.2185 40.5987 25.8743 37.9281 26.0837 35.9481C26.1701 35.129 26.5086 34.554 27.0068 34.2534L30.2546 32.2949C29.7565 32.5955 29.4179 33.1705 29.3315 33.9896C29.1221 35.9696 30.4663 38.6402 32.3268 39.944C32.4119 40.0024 32.5126 40.0651 32.6267 40.1297C34.268 41.0404 38.6461 42.2279 42.2962 43.0683Z" fill="#CC104A"/>
<path d="M43.4717 42.4464L40.2238 44.405C36.6272 40.1711 32.3854 34.9593 31.5541 33.302C30.4801 31.1677 30.5967 29.0717 31.7554 28.3726L35.0032 26.4141C33.8446 27.1132 33.7301 29.2092 34.8018 31.3412C35.6332 33.0008 39.8751 38.2125 43.4717 42.4464Z" fill="#CC104A"/>
<path d="M30.8385 26.8549L34.0865 24.8961C34.2284 24.8105 34.3818 24.7401 34.5464 24.6861C35.385 24.4108 36.3835 24.6068 37.3794 25.1604C38.548 25.8101 39.7132 26.9523 40.6117 28.403L37.3638 30.3618C36.4652 28.9111 35.3 27.7689 34.1314 27.1192C33.1355 26.5656 32.1371 26.3696 31.2984 26.6449C31.1338 26.6989 30.9805 26.7693 30.8385 26.8549Z" fill="#E93565"/>
<path d="M60.5135 54.5081L57.2657 56.4666C56.7588 56.7718 56.0789 56.7983 55.3025 56.4785C55.2155 56.4423 55.115 56.393 55.001 56.3305C53.3619 55.4176 48.9473 51.72 45.2672 48.4846L48.515 46.5239C52.1951 49.7592 56.6096 53.4591 58.2488 54.372C58.3628 54.4344 58.4633 54.4838 58.5504 54.52C59.3267 54.8398 60.0066 54.8132 60.5135 54.5081Z" fill="#F45170"/>
<path d="M39.5356 29.6803L42.7835 27.7215C42.185 28.0825 41.822 28.8345 41.8362 29.8935C41.8566 31.4165 43.7068 37.6042 45.3773 42.766L42.1293 44.7248C40.4588 39.563 38.6087 33.3753 38.5882 31.8523C38.574 30.7933 38.937 30.0413 39.5356 29.6803Z" fill="#CC104A"/>
<path d="M50.6407 35.1014C50.5441 35.1606 50.4543 35.2285 50.3692 35.3075C49.5681 36.0584 48.2576 40.6424 47.3044 44.5757L44.0566 46.5342C45.0099 42.6009 46.3203 38.0169 47.1214 37.266C47.2065 37.187 47.2962 37.1191 47.3929 37.0621L50.6407 35.1014Z" fill="#CC104A"/>
<path d="M55.6188 43.1543L52.3708 45.1131C51.2442 45.7925 47.3746 46.2831 44.0567 46.5351L47.3047 44.5763C50.6225 44.3243 54.4922 43.8337 55.6188 43.1543Z" fill="#F45170"/>
<path d="M38.6196 28.1604L41.8676 26.2016C42.6994 25.7 43.8633 25.7498 45.1587 26.4699C47.4916 27.7668 49.4495 30.7894 49.8277 33.526L46.5797 35.4848C46.2015 32.7482 44.2436 29.7255 41.9107 28.4287C40.6153 27.7086 39.4514 27.6587 38.6196 28.1604Z" fill="#F45170"/>
<path d="M61.429 56.0266L58.1811 57.9851C59.1424 57.4067 59.6485 56.0977 59.4354 54.304C59.0989 51.4575 57.0679 48.3881 54.7557 47.1027C54.5567 46.993 54.3579 46.8943 54.1549 46.8134C53.934 46.7216 53.6558 46.6464 53.3402 46.5917L56.5881 44.6332C56.9036 44.6879 57.1818 44.7631 57.4027 44.8526C57.6057 44.9357 57.8045 45.0322 58.0035 45.1442C60.3157 46.4274 62.3467 49.499 62.6832 52.3455C62.8963 54.1369 62.3902 55.4482 61.429 56.0266Z" fill="#F45170"/>
<path d="M30.7999 33.1487C30.7346 33.2736 30.5726 33.2274 30.5258 33.1175C30.2728 32.5229 30.4058 31.689 30.4875 31.0638C30.511 30.8845 30.5235 30.6557 30.5707 30.4438C30.1127 30.4481 29.6961 30.5586 29.3398 30.7734L26.0919 32.7322C26.9325 32.2252 28.1054 32.2877 29.3792 32.9958C29.5773 33.106 29.7781 33.2318 29.9801 33.3734C30.2033 33.5297 30.4828 33.7658 30.8028 34.0647L30.9061 34.0023L30.8886 32.9252C30.8646 33.0024 30.837 33.0779 30.7999 33.1487Z" fill="#F45170"/>
<path d="M59.4356 54.3048C59.803 57.3936 58.0326 59.0504 55.482 58.002C55.362 57.9527 55.2243 57.8844 55.07 57.7986C52.0982 56.1467 43.118 48.0705 42.2344 47.2741L42.093 47.1956C41.2176 47.0141 32.3203 45.1524 29.3478 43.5001C29.1937 43.4144 29.0553 43.3291 28.9349 43.2448C26.3757 41.4527 24.534 37.788 24.8234 35.0644C25.0886 32.5519 27.0675 31.7107 29.3792 32.9959C29.5773 33.106 29.778 33.2318 29.9801 33.3734C30.2032 33.5297 30.4828 33.7658 30.8028 34.0647C30.71 33.9066 30.6272 33.759 30.5602 33.6266C28.9543 30.4301 29.2851 27.3052 31.2984 26.6449C32.1371 26.3696 33.1355 26.5656 34.1314 27.1192C35.3 27.7689 36.4652 28.9111 37.3638 30.3618C37.6737 28.0077 39.5793 27.1327 41.9107 28.4287C44.2436 29.7255 46.2015 32.7482 46.5797 35.4848C47.4527 35.0188 48.6038 35.1642 49.7724 35.8139C50.768 36.3674 51.7765 37.287 52.6357 38.506C54.6972 41.4314 55.1174 44.9738 53.5737 46.4194C53.5093 46.4788 53.4293 46.536 53.3393 46.5924C53.6561 46.6475 53.9335 46.721 54.1557 46.8123C54.3572 46.895 54.5572 46.9919 54.7554 47.1021C57.0669 48.3871 59.0985 51.4578 59.4356 54.3048ZM31.5535 33.3011C32.3863 34.9595 36.6267 40.1705 40.2233 44.4042C39.1493 39.3433 37.6955 33.2226 36.8598 31.561C36.1792 30.2063 35.167 29.1316 34.1509 28.5668C33.4259 28.1639 32.6988 28.0204 32.089 28.2201C30.6259 28.6991 30.3858 30.979 31.5535 33.3011ZM47.1222 37.2658C46.3203 38.017 45.0101 42.6012 44.0567 46.5351C47.593 46.2665 51.7562 45.7269 52.5567 44.9765C53.6791 43.9274 53.3738 41.3443 51.8758 39.2193C51.2514 38.3334 50.5174 37.6647 49.7922 37.2616C48.7761 36.6968 47.7772 36.6536 47.1222 37.2658ZM55.3014 56.4787C57.1553 57.2414 58.4456 56.0341 58.1803 53.7893C57.9345 51.7189 56.4511 49.4796 54.7706 48.5455C54.6271 48.4657 54.482 48.3954 54.3363 48.3356C53.0111 47.7909 48.7452 48.0718 45.2661 48.4835C48.9481 51.719 53.361 55.4185 55.0009 56.3301C55.1148 56.3934 55.2155 56.4434 55.3014 56.4787ZM29.3794 42.0875C31.0196 42.9992 35.3988 44.187 39.0484 45.0272C35.5059 40.7123 31.1684 35.6489 29.838 34.7174C29.6915 34.6147 29.5463 34.5236 29.4026 34.4438C27.7212 33.5093 26.2772 34.1212 26.0837 35.9473C25.875 37.9285 27.2174 40.5993 29.0785 41.9017C29.1648 41.9622 29.2654 42.0241 29.3794 42.0875ZM42.1293 44.7248C43.6854 41.3566 45.3976 37.1508 45.3771 35.6261C45.3485 33.4953 43.8019 30.9142 41.9301 29.8737C40.0584 28.8332 38.5597 29.7215 38.5883 31.8523C38.6087 33.3753 40.4588 39.563 42.1293 44.7248Z" fill="#DF3260"/>
<path d="M46.5797 35.4848L49.8277 33.526C50.7007 33.06 51.8518 33.2054 53.0204 33.8551C54.016 34.4086 55.0245 35.3282 55.8837 36.5472C57.9451 39.4726 58.3653 43.015 56.8217 44.4606C56.7573 44.52 56.6773 44.5772 56.5873 44.6336L53.3393 46.5924C53.4293 46.536 53.5093 46.4788 53.5737 46.4194C55.1174 44.9738 54.6972 41.4314 52.6357 38.506C51.7765 37.287 50.768 36.3674 49.7724 35.8139C48.6038 35.1642 47.4527 35.0188 46.5797 35.4848Z" fill="#E93565"/>
<path d="M105 106.326C105.011 109.244 103.112 112.15 99.2837 114.381C91.6264 118.831 79.1643 118.831 71.4533 114.391C67.6032 112.161 65.662 109.254 65.6406 106.326C65.6406 106.133 65.6513 105.93 65.662 105.737C65.7585 103.838 66.1661 101.65 66.8632 99.3447C67.5593 97.2636 68.4698 95.018 69.5229 92.6632C71.7644 88.1696 74.8316 83.8798 78.3814 81.0484C78.4136 82.0351 79.0999 83.0325 80.4191 83.7832C83.1324 85.3598 87.5081 85.3598 90.2107 83.7832C91.5191 83.0325 92.1947 82.0351 92.2162 81.027C99.4446 86.754 104.657 98.5189 104.978 105.801C104.989 105.983 105 106.155 105 106.326Z" fill="#5094FF"/>
<path d="M75.6169 91.2273C75.3509 91.0899 75.2469 90.7559 75.3891 90.4924C77.0608 87.396 78.9696 85.2165 81.2133 83.8389L81.7747 84.7532C79.6965 86.0285 77.9131 88.0745 76.3344 90.9993C76.1952 91.2571 75.8772 91.3618 75.6169 91.2273Z" fill="#57B3FE"/>
<path d="M79.0259 67.9449C79.0259 67.9449 74.7837 66.631 73.6699 68.5877C73.6699 68.5877 72.7003 69.6255 73.5802 71.1304C74.053 71.9391 74.8992 72.4567 75.8179 72.64C76.8249 72.841 78.3223 73.2324 79.1475 73.8911C80.4677 74.9452 85.5537 76.9654 90.4626 74.982C90.4626 74.982 92.1035 73.9246 93.6219 73.9689C95.1403 74.0131 96.7176 73.2023 97.0419 72.0819C97.3663 70.9616 96.9535 67.5268 94.1821 67.9543C94.1821 67.9543 91.9619 68.9525 89.4916 67.8693C86.7706 66.6763 83.9245 67.7745 83.9245 67.7745C83.9245 67.7745 81.4212 69.1896 79.0259 67.9449Z" fill="#57B3FE"/>
<path d="M86.0242 74.7481C82.9681 74.7481 80.4817 73.584 79.8167 73.053C79.0317 72.4262 77.7571 71.9334 76.028 71.5883C75.3535 71.4538 74.799 71.0893 74.5062 70.5892C74.0423 69.7964 74.4491 69.3245 74.4533 69.3198L74.5397 69.2277L74.6021 69.1182C74.866 68.6548 75.7368 68.5857 76.2327 68.5857C77.2644 68.5857 78.3373 68.8643 78.6306 68.9465C79.4124 69.3335 80.2686 69.5293 81.1766 69.5293C82.7377 69.5293 84.0081 68.9381 84.3579 68.7585C84.5768 68.6836 85.5215 68.3856 86.7013 68.3856C87.5622 68.3856 88.3561 68.5427 89.0609 68.8517C89.9611 69.246 90.9225 69.4466 91.9196 69.4466C93.1497 69.446 94.0865 69.1423 94.4583 68.9999C94.5212 68.9931 94.5819 68.9899 94.6411 68.9899C95.0338 68.9899 95.314 69.1297 95.5501 69.4439C96.0602 70.1226 96.1387 71.3448 96.012 71.7842C95.8596 72.31 94.8558 72.898 93.7404 72.898L93.5278 72.8949C91.94 72.8949 90.3973 73.7647 89.9763 74.0213C88.7509 74.5036 87.4218 74.7481 86.0242 74.7481Z" fill="#497BFE"/>
<path d="M90.2287 80.7216C87.5273 82.2914 83.1493 82.2915 80.4303 80.7216C79.5368 80.2058 78.3767 78.9258 78.3767 78.9258L78.3671 80.9284C78.3641 81.9614 79.0475 82.9959 80.4157 83.7858C83.1347 85.3557 87.5127 85.3557 90.2141 83.7858C91.5561 83.0059 92.2279 81.9875 92.2308 80.9677L92.2405 78.9925C92.2405 78.9925 91.1165 80.2056 90.2287 80.7216Z" fill="#497BFE"/>
<path d="M83.0484 89.8431C82.9647 90.1581 82.6167 90.3351 82.3187 90.2031C81.6456 89.9049 81.1448 89.4323 80.8258 88.7922C79.88 86.895 80.9592 84.1984 81.0053 84.0847L82.0144 84.4774C82.005 84.501 81.0557 86.8542 81.7867 88.3162C81.9919 88.7263 82.3098 89.0253 82.7523 89.2219C82.99 89.3276 83.1152 89.5917 83.0484 89.8431V89.8431Z" fill="#57B3FE"/>
<path d="M98.0957 110.969C97.1236 111.528 96.1309 111.776 95.2002 111.734C93.856 111.672 92.615 111.073 91.643 109.997C91.3741 109.687 91.1052 109.315 90.8778 108.922C90.5054 108.322 90.2159 107.598 90.009 106.812C89.9883 106.771 89.9883 106.709 89.9678 106.667C88.913 102.303 90.8364 97.1744 94.2488 95.1889C95.2209 94.6306 96.2136 94.3824 97.165 94.4031C97.8061 94.4237 98.4266 94.5892 99.0057 94.858C99.3573 95.0235 99.7088 95.2303 100.019 95.4992C101.074 96.3265 101.922 97.65 102.335 99.3667C102.356 99.4081 102.377 99.4493 102.377 99.4908C103.432 103.855 101.529 108.984 98.0957 110.969Z" fill="#F9A83D"/>
<path d="M95.3731 110.157C93.6005 110.157 92.0839 108.638 91.51 106.283C90.6198 102.633 92.2382 98.1809 95.0445 96.561C95.6971 96.1845 96.3527 95.9932 96.993 95.9932C98.7857 95.9932 100.262 97.4789 100.845 99.8702C101.737 103.522 100.117 107.974 97.3108 109.594C96.6628 109.968 96.0118 110.157 95.3731 110.157Z" fill="#FFD475"/>
<path d="M86.1426 74.1493L85.4853 75.5682C85.1588 76.2731 84.3708 76.7647 83.1972 76.8771C80.8332 77.1035 77.7991 75.7103 76.4216 73.7654C75.7268 72.7845 75.5841 71.8515 75.9147 71.1376L76.572 69.7188C76.2413 70.4326 76.384 71.3656 77.0788 72.3465C78.4563 74.2914 81.4904 75.6846 83.8544 75.4582C85.0281 75.3458 85.8161 74.8542 86.1426 74.1493Z" fill="#FFD06C"/>
<path d="M83.2428 72.9231L83.584 74.4492C83.7535 75.2073 84.4193 75.8549 85.5424 76.2138C87.8045 76.9366 91.0651 76.2189 92.8239 74.6106C93.711 73.7994 94.0484 72.9179 93.8768 72.1501L93.5355 70.6241C93.7072 71.3919 93.3698 72.2733 92.4827 73.0845C90.7239 74.6928 87.4633 75.4106 85.2011 74.6877C84.0781 74.3289 83.4123 73.6813 83.2428 72.9231Z" fill="#FFD475"/>
<path d="M92.4795 73.078C91.51 73.9747 90.0802 74.6048 88.6019 74.8472C87.996 74.9441 87.4144 74.9926 86.8328 74.9441C86.5663 74.9441 86.2754 74.9199 86.0088 74.8713C85.7423 74.823 85.4757 74.7502 85.2092 74.6776C84.3366 74.4109 83.7308 73.9504 83.44 73.4173C82.9553 72.5692 83.2219 71.4544 84.2883 70.4607C85.2818 69.564 86.7117 68.9582 88.1657 68.6916C89.3532 68.4977 90.5649 68.5462 91.5827 68.8613C91.6797 68.8855 91.7766 68.9341 91.8736 68.9824C92.0916 69.0552 92.2856 69.1521 92.4795 69.2732C92.8672 69.4914 93.158 69.7822 93.3276 70.1215C93.8366 70.9939 93.5699 72.0845 92.4795 73.078Z" fill="#F9A83D"/>
<path d="M85.3801 70.8124C84.086 71.9957 84.3873 73.3847 86.0462 73.9148C87.7084 74.4459 90.1048 73.919 91.3989 72.7357C92.6929 71.5523 92.3916 70.1634 90.7294 69.6322C89.0705 69.1021 86.6741 69.629 85.3801 70.8124Z" fill="#FFD06C"/>
<path d="M90.375 70.9611C90.2497 70.7761 90.0655 70.604 89.8285 70.4503L90.0564 70.2009C90.0912 70.1628 90.108 70.1218 90.1056 70.081C90.102 70.0395 90.0822 70.0075 90.0439 69.9854C90.0057 69.9633 89.9612 69.9582 89.9117 69.9691C89.8623 69.9818 89.8207 70.0066 89.7859 70.0447L89.5535 70.2991C89.3587 70.2129 89.1616 70.1685 88.9681 70.1675C88.7651 70.1667 88.5751 70.2053 88.4029 70.2823C88.2318 70.3581 88.0805 70.4659 87.9559 70.6023C87.8144 70.7571 87.7374 70.9116 87.7258 71.0606C87.7152 71.2084 87.7471 71.347 87.82 71.4716C87.8891 71.5922 87.9888 71.7267 88.1177 71.8706L87.3352 72.727C87.1266 72.5878 86.9601 72.4128 86.8395 72.2081C86.8237 72.1821 86.8022 72.1603 86.775 72.1446C86.7231 72.1146 86.6643 72.1088 86.5984 72.1252C86.5325 72.1416 86.4782 72.1741 86.4345 72.222C86.4008 72.2589 86.3805 72.2997 86.3736 72.3464C86.3667 72.3912 86.3737 72.4309 86.3947 72.4637C86.5412 72.704 86.7455 72.914 87.0018 73.092L86.766 73.35C86.729 73.3905 86.711 73.4309 86.7156 73.4692C86.719 73.5068 86.7399 73.5376 86.7782 73.5597C86.8189 73.5832 86.8635 73.5902 86.9118 73.5787C86.9602 73.5691 87.0017 73.5443 87.0365 73.5062L87.2723 73.2481C87.4553 73.3369 87.6468 73.3874 87.8386 73.4006C88.0363 73.4134 88.2281 73.3852 88.4055 73.3149C88.5841 73.2454 88.7392 73.1397 88.866 73.0009C89.0209 72.8313 89.1057 72.6663 89.1171 72.5133C89.1274 72.3616 89.0931 72.2217 89.0155 72.098C88.9417 71.9785 88.8323 71.8421 88.6913 71.695L89.5007 70.8091C89.6855 70.929 89.8369 71.0689 89.9498 71.2242C89.9681 71.2516 89.9858 71.2694 90.0043 71.2801C90.055 71.3093 90.115 71.3158 90.1796 71.2968C90.2442 71.2778 90.2984 71.2452 90.3388 71.201C90.4163 71.1162 90.4283 71.035 90.375 70.9611ZM88.2639 71.1179C88.235 71.0112 88.2684 70.9066 88.3672 70.7984C88.4693 70.6866 88.5992 70.6209 88.7509 70.6014C88.8991 70.5838 89.0567 70.6053 89.219 70.6652L88.4814 71.4725C88.3652 71.3416 88.2914 71.222 88.2639 71.1179ZM88.3275 72.0931C88.4529 72.2368 88.5353 72.3613 88.5746 72.4629C88.614 72.5663 88.5909 72.6618 88.5045 72.7565C88.2709 73.012 87.9772 73.0527 87.6068 72.882L88.3275 72.0931Z" fill="#F9A83D"/>
<g opacity="0.3">
<path d="M91.8736 68.9824L86.0088 74.8713C85.7423 74.823 85.4758 74.7502 85.2092 74.6776C84.3367 74.4109 83.7308 73.9504 83.44 73.4173L88.1657 68.6916C89.3532 68.4977 90.5649 68.5462 91.5827 68.8613C91.6797 68.8855 91.7766 68.9341 91.8736 68.9824Z" fill="white"/>
</g>
<g opacity="0.3">
<path d="M93.3277 70.1216L88.6019 74.8473C87.9961 74.9442 87.4145 74.9927 86.8329 74.9442L92.4795 69.2733C92.8672 69.4915 93.158 69.7823 93.3277 70.1216Z" fill="white"/>
</g>
<path d="M85.6382 71.5267C87.0157 73.4716 86.2153 75.2321 83.8544 75.4583C81.4904 75.6847 78.4563 74.2915 77.0788 72.3466C75.6977 70.3966 76.4981 68.6361 78.8621 68.4097C81.223 68.1835 84.2571 69.5768 85.6382 71.5267Z" fill="#F9A83D"/>
<path d="M84.5018 71.6332C85.5154 73.0642 84.9262 74.3576 83.1926 74.5236C81.4556 74.69 79.2255 73.6666 78.212 72.2357C77.1985 70.8047 77.7876 69.5113 79.5247 69.3449C81.2583 69.1789 83.4883 70.2022 84.5018 71.6332Z" fill="#FFD06C"/>
<path d="M83.0752 72.9468C83.1542 72.7967 83.1828 72.6371 83.1581 72.4733C83.1322 72.3103 83.0571 72.1524 82.9337 72.005C82.783 71.825 82.6162 71.7008 82.4376 71.6394C82.2613 71.5787 82.0845 71.5569 81.9131 71.5747C81.7478 71.5908 81.5511 71.6289 81.3314 71.688L80.5439 70.7477C80.7454 70.6449 80.9599 70.5752 81.1814 70.5402C81.2186 70.5362 81.2453 70.5285 81.264 70.5177C81.3162 70.4876 81.3421 70.4436 81.3404 70.3866C81.3399 70.3288 81.3177 70.2758 81.2784 70.2289C81.203 70.1389 81.1119 70.1006 81.006 70.1172C80.7466 70.1509 80.4846 70.2344 80.2249 70.3669L80.0032 70.1022C79.9694 70.0618 79.9262 70.0344 79.8771 70.0221C79.8281 70.0098 79.7825 70.0148 79.744 70.0371C79.7055 70.0593 79.6852 70.0923 79.6833 70.1341C79.6812 70.1778 79.6971 70.2189 79.731 70.2593L79.9571 70.5293C79.7934 70.6509 79.6772 70.7896 79.6124 70.9412C79.5459 71.0995 79.5302 71.2614 79.5658 71.4227C79.6002 71.5828 79.679 71.7385 79.8003 71.8832C79.9379 72.0476 80.0959 72.1614 80.2698 72.2216C80.4402 72.2819 80.6145 72.305 80.7856 72.2914C80.9507 72.2793 81.1421 72.2481 81.3541 72.1973L82.1153 73.1063C81.8832 73.221 81.6223 73.2904 81.341 73.3134C81.3051 73.3168 81.2723 73.326 81.2449 73.3418C81.1927 73.372 81.1669 73.4159 81.165 73.4731C81.1643 73.5296 81.1841 73.584 81.2267 73.6348C81.2594 73.674 81.3024 73.7033 81.3543 73.7256C81.4051 73.7466 81.4544 73.7549 81.5012 73.7491C81.8318 73.7189 82.1463 73.6321 82.4397 73.4936L82.6691 73.7675C82.7051 73.8105 82.7483 73.8378 82.7939 73.8483C82.8407 73.858 82.8828 73.8531 82.9213 73.8308C82.9623 73.8072 82.9849 73.7747 82.9881 73.7323C82.9911 73.6918 82.9752 73.6508 82.9413 73.6103L82.7119 73.3365C82.8774 73.2235 82.9978 73.0921 83.0752 72.9468ZM81.6852 72.1106C81.8958 72.0625 82.0711 72.0407 82.2027 72.0459C82.3379 72.051 82.4435 72.1023 82.5276 72.2027C82.7548 72.474 82.7081 72.7176 82.3864 72.9478L81.6852 72.1106ZM80.0559 71.2616C80.0829 71.1396 80.1593 71.0239 80.2826 70.9179L81.0002 71.7748C80.8077 71.8201 80.6423 71.8363 80.5102 71.8216C80.3745 71.8071 80.2626 71.744 80.1665 71.6292C80.0671 71.5106 80.03 71.3869 80.0559 71.2616Z" fill="#F9A83D"/>
<g opacity="0.3">
<path d="M86.2996 73.5627C86.2027 74.4594 85.5 75.138 84.3124 75.3803L77.6722 68.7159C78.0115 68.5462 78.3992 68.4493 78.8597 68.4008C79.6837 68.3282 80.5804 68.4493 81.477 68.7401L86.2996 73.5627Z" fill="white"/>
</g>
<g opacity="0.3">
<path d="M83.537 75.4773C82.9553 75.5015 82.3494 75.4289 81.7435 75.2592L76.4847 70.0004C76.5816 69.6369 76.7998 69.2975 77.1149 69.031L83.537 75.4773Z" fill="white"/>
</g>
<path d="M96.0208 70.7153C96.0862 71.1559 96.0749 71.5665 96.0121 71.7842C95.8596 72.3099 94.8558 72.898 93.7404 72.898L93.5278 72.8948C91.9401 72.8948 90.3973 73.7647 89.9763 74.0212C88.7509 74.5036 87.4218 74.7481 86.0243 74.7481C82.9682 74.7481 80.4818 73.584 79.8167 73.053C79.0318 72.4262 77.7572 71.9334 76.028 71.5883C75.9902 71.5807 75.5227 71.4291 75.4858 71.4201L75.0017 72.5496C76.006 72.7559 78.3478 73.2527 79.1475 73.8911C80.4678 74.9451 85.5538 76.9654 90.4626 74.9819C90.4626 74.9819 92.1036 73.9246 93.622 73.9688C95.1404 74.013 96.7177 73.2023 97.042 72.0819C97.1337 71.7653 97.1629 71.2621 97.1003 70.7153H96.0208Z" fill="#57B3FE"/>
<path d="M97.128 71.5678C97.2568 73.7878 93.1492 78.0777 93.1492 78.0777C92.6881 78.4852 92.2805 78.8927 91.9481 79.2895C91.9373 79.3003 91.9266 79.311 91.9051 79.3217C91.5083 79.7293 90.822 80.3727 90.2321 80.7266C87.5295 82.2925 83.1539 82.2925 80.4298 80.7266C79.6255 80.2548 78.5959 79.1608 78.4136 78.9571C77.8452 77.6916 77.3948 76.8658 77.3948 76.8658C76.4081 74.9139 74.3597 72.1792 73.8557 71.5249C74.3489 72.1147 75.0568 72.4901 75.8182 72.6403C76.8263 72.8441 78.3171 73.2301 79.1429 73.8951C80.4727 74.9461 85.5562 76.9623 90.4573 74.9783C90.4573 74.9783 92.0982 73.9272 93.6211 73.9701C95.144 74.013 96.7205 73.1979 97.0423 72.0826C97.0744 71.9432 97.1174 71.7609 97.128 71.5678Z" fill="#5094FF"/>
<path d="M95.5028 98.8418C95.591 98.7909 95.694 98.8039 95.756 98.9129L96.8525 100.828C96.9105 100.926 97.0128 100.957 97.1088 100.901L98.9685 99.8275C99.1821 99.7042 99.3505 99.9967 99.215 100.258L98.031 102.51C97.9711 102.628 97.9664 102.772 98.0244 102.869L99.1202 104.782C99.2152 104.95 99.1313 105.192 98.9933 105.272C98.9502 105.297 98.9019 105.306 98.852 105.292L97.0231 104.772C96.9766 104.759 96.927 104.768 96.8814 104.794C96.8358 104.82 96.7942 104.864 96.764 104.921L95.5789 107.182C95.5466 107.243 95.5059 107.285 95.4628 107.31C95.3248 107.39 95.1619 107.291 95.1656 107.065L95.2216 104.488C95.226 104.354 95.1636 104.249 95.0699 104.22L93.2447 103.705C93.0346 103.643 93.0438 103.248 93.2574 103.125L95.1171 102.051C95.2131 101.996 95.2788 101.868 95.2832 101.735L95.3385 99.154C95.3413 99.0075 95.4147 98.8927 95.5028 98.8418Z" fill="#F9A83D"/>
<g opacity="0.3">
<path d="M102.335 99.3666L95.2002 111.734C93.856 111.672 92.615 111.073 91.643 109.997L100.019 95.4991C101.074 96.3265 101.922 97.65 102.335 99.3666Z" fill="white"/>
<path d="M99.0057 94.858L90.8778 108.922C90.5054 108.322 90.2159 107.598 90.009 106.812L97.165 94.4031C97.8061 94.4237 98.4265 94.5891 99.0057 94.858Z" fill="white"/>
</g>
<path d="M97.6846 10.9828C97.709 18.7409 92.293 28.1336 85.5595 32.0372C83.8761 32.9886 82.2903 33.5254 80.8265 33.6718L75.8983 40.7469L72.8976 38.9902L73.971 31.1832L73.8735 31.1346C71.7021 29.8414 70.3603 27.1579 70.3359 23.3031C70.3115 15.5694 75.7519 6.15213 82.4855 2.27313C85.8522 0.345838 88.9018 0.150623 91.1219 1.4193L94.1228 3.1758C94.0008 3.10254 93.8787 3.02942 93.7323 2.98058C96.1476 4.15173 97.6603 6.93285 97.6846 10.9828Z" fill="#78E75A"/>
<path d="M75.9008 40.7349L72.8972 38.9894L73.9653 31.1855L76.9689 32.9311L75.9008 40.7349Z" fill="#5EC363"/>
<path d="M94.1316 3.17498C91.9155 1.89652 88.8684 2.06703 85.4803 4.02737C78.7469 7.90553 73.3131 17.3238 73.3344 25.0588C73.3558 28.8943 74.6982 31.6006 76.8717 32.879L73.8672 31.1317C71.6938 29.8532 70.3513 27.147 70.33 23.3115C70.3087 15.5765 75.7423 6.15822 82.4759 2.28006C85.8639 0.341046 88.911 0.149213 91.1271 1.4278L94.1316 3.17498Z" fill="#72D561"/>
<path d="M85.4719 4.03309C92.2063 0.145 97.666 3.27189 97.6879 10.9945C97.7098 18.7485 92.2857 28.1435 85.5513 32.0316C83.8779 32.9977 82.2851 33.5259 80.8274 33.6628L75.9008 40.735L76.9689 32.9311C74.7305 31.6868 73.3464 28.947 73.3354 25.0545C73.3135 17.3318 78.7512 7.9133 85.4719 4.03309Z" fill="#78E75A"/>
<path d="M92.5388 22.036C96.447 15.3018 96.4529 8.00735 92.552 5.74346C88.6511 3.47957 82.3205 7.10351 78.4123 13.8378C74.5041 20.572 74.4982 27.8664 78.3991 30.1303C82.3001 32.3942 88.6306 28.7703 92.5388 22.036Z" fill="white"/>
<path d="M85.4957 9.65857L87.1006 14.3692L92.2602 11.3903L88.0826 17.2878L89.7063 22.0091L85.5276 20.9146L81.3687 26.8228L82.9417 20.2559L78.7631 19.1829L83.9226 16.204L85.4957 9.65857Z" fill="#4C5C75"/>
<path d="M75.9008 40.7349L72.8972 38.9894L73.9653 31.1855L76.9689 32.9311L75.9008 40.7349Z" fill="#5EC363"/>
<path d="M94.1316 3.17498C91.9155 1.89652 88.8684 2.06703 85.4803 4.02737C78.7469 7.90553 73.3131 17.3238 73.3344 25.0588C73.3558 28.8943 74.6982 31.6006 76.8717 32.879L73.8672 31.1317C71.6938 29.8532 70.3513 27.147 70.33 23.3115C70.3087 15.5765 75.7423 6.15822 82.4759 2.28006C85.8639 0.341046 88.911 0.149213 91.1271 1.4278L94.1316 3.17498Z" fill="#72D561"/>
<path d="M85.4719 4.03309C92.2063 0.145 97.666 3.27189 97.6879 10.9945C97.7098 18.7485 92.2857 28.1435 85.5513 32.0316C83.8779 32.9977 82.2851 33.5259 80.8274 33.6628L75.9008 40.735L76.9689 32.9311C74.7305 31.6868 73.3464 28.947 73.3354 25.0545C73.3135 17.3318 78.7512 7.9133 85.4719 4.03309Z" fill="#78E75A"/>
<path d="M92.5388 22.036C96.447 15.3018 96.4529 8.00735 92.552 5.74346C88.6511 3.47957 82.3205 7.10351 78.4123 13.8378C74.5041 20.572 74.4982 27.8664 78.3991 30.1303C82.3001 32.3942 88.6306 28.7703 92.5388 22.036Z" fill="white"/>
<path d="M85.4957 9.65857L87.1006 14.3692L92.2602 11.3903L88.0826 17.2878L89.7063 22.0091L85.5276 20.9146L81.3687 26.8228L82.9417 20.2559L78.7631 19.1829L83.9226 16.204L85.4957 9.65857Z" fill="#4C5C75"/>
</svg>
